<svg xmlns="http://www.w3.org/2000/svg" width="24" height="13" viewBox="0 0 24 13" fill="none">
    <g clip-path="url(#clip0_1_231)">
        <path d="M0 1.65034V10.215L2.79549 11.4131V8.37338L4.75362 7.54494V7.25181L2.79549 6.417V2.77191L5.17874 1.76504L4.85668 1.24249L2.92432 0.414062L0 1.65034Z" fill="#8DC6E2"/>
        <path d="M2.79549 11.4129L0 10.2148V12.9933L2.79549 11.534V11.4129Z" fill="#2C66AF"/>
        <path d="M2.79541 6.4173V6.20064L5.17866 5.21289L7.36224 6.1624V6.42367L4.75354 7.54524V7.25211L2.79541 6.4173Z" fill="#2C66AF"/>
        <path d="M7.36865 6.26326L5.17871 5.21588V1.36914L7.36865 2.40149V6.26326Z" fill="#2D2E83"/>
        <path d="M5.17851 1.36964L4.85645 1.24219L5.17851 1.76474V1.36964Z" fill="#2D2E83"/>
        <path d="M4.85668 1.24265L2.92432 0.414216L4.05797 0L4.85668 1.24265Z" fill="#2C66AF"/>
        <path d="M5.17871 1.36914V1.76424L5.5523 1.54757L5.17871 1.36914Z" fill="#2C66AF"/>
        <path d="M9.08105 4.58729V1.49023H10.2907V1.79994H9.51777V2.83229H10.1168V3.13818H9.51777V4.58729H9.08105ZM10.7762 4.58729V2.37729H11.1898V4.58729H10.7762ZM10.7762 2.04847V1.62023H11.1898V2.04847H10.7762ZM11.8256 4.58729V2.37729H12.2391V2.59523C12.3138 2.52641 12.3962 2.46778 12.4864 2.41935C12.5766 2.37092 12.6758 2.3467 12.784 2.3467C12.8742 2.3467 12.9424 2.36965 12.9888 2.41553C13.0378 2.46141 13.0713 2.51876 13.0893 2.58759C13.1099 2.65641 13.1202 2.72651 13.1202 2.79788V4.58729H12.7067V2.91641C12.7067 2.83739 12.6951 2.77621 12.6719 2.73288C12.6487 2.68955 12.6011 2.66788 12.5289 2.66788C12.4826 2.66788 12.4336 2.6819 12.3821 2.70994C12.3331 2.73543 12.2855 2.76729 12.2391 2.80553V4.58729H11.8256ZM14.3124 4.61788C14.1964 4.61788 14.1024 4.59621 14.0302 4.55288C13.9607 4.50955 13.9091 4.44837 13.8756 4.36935C13.8447 4.29033 13.8293 4.19729 13.8293 4.09023V2.64876H13.5935V2.37729H13.8293V1.73112H14.2428V2.37729H14.6022V2.64876H14.2428V4.06347C14.2428 4.15014 14.257 4.21259 14.2853 4.25082C14.3136 4.28651 14.3678 4.30435 14.4476 4.30435C14.4682 4.30435 14.4914 4.30308 14.5172 4.30053C14.5455 4.29798 14.5726 4.29543 14.5983 4.29288V4.59494C14.5468 4.60259 14.4992 4.60769 14.4554 4.61023C14.4116 4.61533 14.3639 4.61788 14.3124 4.61788ZM15.7176 4.61788C15.5424 4.61788 15.4071 4.58474 15.3118 4.51847C15.2164 4.44965 15.1495 4.35023 15.1108 4.22023C15.0747 4.08769 15.0567 3.92582 15.0567 3.73465V3.22994C15.0567 3.03367 15.076 2.87053 15.1147 2.74053C15.1533 2.61053 15.2203 2.51239 15.3156 2.44612C15.4136 2.37984 15.5475 2.3467 15.7176 2.3467C15.9057 2.3467 16.0435 2.38494 16.1311 2.46141C16.2213 2.53788 16.2805 2.64876 16.3089 2.79406C16.3372 2.9368 16.3514 3.10886 16.3514 3.31023V3.48994H15.4702V3.93347C15.4702 4.02269 15.478 4.09533 15.4934 4.15141C15.5115 4.20749 15.5385 4.24955 15.5746 4.27759C15.6132 4.30308 15.6622 4.31582 15.7214 4.31582C15.7833 4.31582 15.8297 4.3018 15.8606 4.27376C15.8941 4.24318 15.916 4.20112 15.9263 4.14759C15.9392 4.09151 15.9456 4.02651 15.9456 3.95259V3.81876H16.3475V3.90288C16.3475 4.12465 16.2999 4.29925 16.2045 4.4267C16.1092 4.55416 15.9469 4.61788 15.7176 4.61788ZM15.4702 3.26818H15.9456V3.06935C15.9456 2.97759 15.9404 2.90112 15.9301 2.83994C15.9198 2.77621 15.8979 2.72906 15.8644 2.69847C15.8335 2.66533 15.7833 2.64876 15.7137 2.64876C15.6467 2.64876 15.5952 2.66406 15.5591 2.69465C15.5256 2.72523 15.5024 2.77749 15.4896 2.85141C15.4767 2.92278 15.4702 3.0222 15.4702 3.14965V3.26818ZM17.5297 4.61788C17.3468 4.61788 17.2077 4.5822 17.1124 4.51082C17.0196 4.4369 16.9565 4.33367 16.923 4.20112C16.8921 4.06857 16.8766 3.91435 16.8766 3.73847V3.22994C16.8766 3.04386 16.8934 2.88582 16.9269 2.75582C16.9603 2.62327 17.0235 2.52259 17.1162 2.45376C17.2116 2.38239 17.3494 2.3467 17.5297 2.3467C17.6921 2.3467 17.817 2.37347 17.9046 2.427C17.9948 2.47798 18.0566 2.55572 18.0901 2.66023C18.1236 2.7622 18.1404 2.88965 18.1404 3.04259V3.17259H17.7655V3.03876C17.7655 2.9419 17.7591 2.86543 17.7462 2.80935C17.7333 2.75327 17.7101 2.71249 17.6766 2.687C17.6431 2.66151 17.5955 2.64876 17.5336 2.64876C17.4666 2.64876 17.4151 2.66406 17.379 2.69465C17.343 2.72523 17.3185 2.77749 17.3056 2.85141C17.2953 2.92278 17.2901 3.02092 17.2901 3.14582V3.84171C17.2901 4.03033 17.3082 4.15651 17.3442 4.22023C17.3803 4.28396 17.4447 4.31582 17.5375 4.31582C17.607 4.31582 17.6573 4.30053 17.6882 4.26994C17.7217 4.2368 17.7423 4.19092 17.75 4.13229C17.7603 4.07367 17.7655 4.00739 17.7655 3.93347V3.75376H18.1404V3.90671C18.1404 4.05455 18.1223 4.182 18.0863 4.28906C18.0528 4.39612 17.9909 4.47769 17.9008 4.53376C17.8132 4.58984 17.6895 4.61788 17.5297 4.61788ZM18.7129 4.58729V1.49023H19.1264V2.60671C19.2011 2.53533 19.2849 2.47416 19.3776 2.42318C19.4704 2.3722 19.5734 2.3467 19.6868 2.3467C19.7744 2.3467 19.8414 2.36965 19.8878 2.41553C19.9367 2.46141 19.9702 2.51876 19.9882 2.58759C20.0088 2.65641 20.0192 2.72651 20.0192 2.79788V4.58729H19.6056V2.91641C19.6056 2.83739 19.594 2.77621 19.5708 2.73288C19.5477 2.68955 19.5 2.66788 19.4278 2.66788C19.3789 2.66788 19.3274 2.6819 19.2733 2.70994C19.2217 2.73798 19.1728 2.77239 19.1264 2.81318V4.58729H18.7129Z" fill="black"/>
        <path d="M9.08105 10.681V7.58398H9.85787C10.0459 7.58398 10.1954 7.6184 10.3062 7.68722C10.4195 7.75349 10.502 7.85036 10.5535 7.97781C10.605 8.10526 10.6308 8.25947 10.6308 8.44046C10.6308 8.60359 10.6012 8.74506 10.5419 8.86487C10.4852 8.98467 10.4002 9.07771 10.2869 9.14398C10.1735 9.20771 10.0318 9.23957 9.86173 9.23957H9.51777V10.681H9.08105ZM9.51777 8.92987H9.71874C9.84498 8.92987 9.94418 8.91585 10.0163 8.88781C10.0885 8.85977 10.14 8.81134 10.1709 8.74251C10.2018 8.67114 10.2173 8.57173 10.2173 8.44428C10.2173 8.29644 10.2057 8.183 10.1825 8.10398C10.1619 8.02496 10.1168 7.97016 10.0472 7.93957C9.97767 7.90898 9.86946 7.89369 9.7226 7.89369H9.51777V8.92987ZM11.135 10.681V7.58398H11.5486V10.681H11.135ZM12.5747 10.7116C12.4871 10.7116 12.4098 10.6874 12.3428 10.639C12.2758 10.588 12.223 10.5243 12.1844 10.4478C12.1457 10.3688 12.1264 10.2859 12.1264 10.1993C12.1264 10.0616 12.1496 9.94565 12.196 9.85134C12.2423 9.75702 12.3055 9.678 12.3853 9.61428C12.4678 9.548 12.5618 9.49065 12.6675 9.44222C12.7757 9.39379 12.8891 9.34663 13.0076 9.30075V9.14398C13.0076 9.05477 13.0025 8.98085 12.9922 8.92222C12.9819 8.86359 12.96 8.82026 12.9265 8.79222C12.8955 8.76163 12.8478 8.74634 12.7834 8.74634C12.7267 8.74634 12.6803 8.75908 12.6443 8.78457C12.6108 8.81006 12.5863 8.84702 12.5708 8.89546C12.5554 8.94134 12.5477 8.99614 12.5477 9.05987V9.17075L12.138 9.15545C12.1431 8.91075 12.1998 8.73104 12.308 8.61634C12.4163 8.49908 12.5837 8.44046 12.8105 8.44046C13.0321 8.44046 13.1893 8.50036 13.282 8.62016C13.3748 8.73996 13.4212 8.9133 13.4212 9.14016V10.1496C13.4212 10.2184 13.4224 10.2847 13.425 10.3484C13.4302 10.4121 13.4353 10.472 13.4405 10.5281C13.4482 10.5816 13.4546 10.6326 13.4598 10.681H13.0811C13.0733 10.6403 13.063 10.5893 13.0501 10.5281C13.0398 10.4644 13.0321 10.407 13.0269 10.356C13.0012 10.4427 12.9509 10.5243 12.8762 10.6007C12.804 10.6747 12.7035 10.7116 12.5747 10.7116ZM12.737 10.3599C12.7783 10.3599 12.8169 10.3484 12.853 10.3255C12.8891 10.3025 12.9213 10.277 12.9497 10.249C12.978 10.2184 12.9973 10.1942 13.0076 10.1763V9.54928C12.9432 9.58496 12.8826 9.62065 12.8259 9.65634C12.7692 9.69202 12.719 9.73026 12.6752 9.77104C12.634 9.80928 12.6005 9.85389 12.5747 9.90487C12.5515 9.9533 12.5399 10.0094 12.5399 10.0731C12.5399 10.1623 12.5567 10.2324 12.5902 10.2834C12.6237 10.3344 12.6726 10.3599 12.737 10.3599ZM14.5766 10.7116C14.4606 10.7116 14.3666 10.69 14.2945 10.6466C14.2249 10.6033 14.1734 10.5421 14.1399 10.4631C14.1089 10.3841 14.0935 10.291 14.0935 10.184V8.74251H13.8577V8.47104H14.0935V7.82487H14.507V8.47104H14.8664V8.74251H14.507V10.1572C14.507 10.2439 14.5212 10.3063 14.5495 10.3446C14.5779 10.3803 14.632 10.3981 14.7118 10.3981C14.7325 10.3981 14.7556 10.3968 14.7814 10.3943C14.8098 10.3917 14.8368 10.3892 14.8626 10.3866V10.6887C14.811 10.6963 14.7634 10.7014 14.7196 10.704C14.6758 10.7091 14.6281 10.7116 14.5766 10.7116ZM15.4948 10.681V8.7731H15.2282V8.47104H15.4948V8.35634C15.4948 8.21869 15.5051 8.10144 15.5258 8.00457C15.5489 7.90516 15.5953 7.82869 15.6649 7.77516C15.7345 7.72163 15.8388 7.69487 15.9779 7.69487C16.0295 7.69487 16.0745 7.69742 16.1132 7.70251C16.1544 7.70506 16.1995 7.71144 16.2485 7.72163V8.01987C16.2253 8.01477 16.1995 8.01094 16.1712 8.0084C16.1428 8.0033 16.1171 8.00075 16.0939 8.00075C16.014 8.00075 15.9625 8.02751 15.9393 8.08104C15.9187 8.13202 15.9084 8.20085 15.9084 8.28751V8.47104H16.2485V8.7731H15.9084V10.681H15.4948ZM17.2807 10.7116C17.1158 10.7116 16.9857 10.6785 16.8904 10.6122C16.7951 10.5459 16.7268 10.4516 16.6856 10.3293C16.6469 10.2069 16.6276 10.0629 16.6276 9.89722V9.25487C16.6276 9.08918 16.6469 8.94516 16.6856 8.82281C16.7268 8.70046 16.7951 8.60614 16.8904 8.53987C16.9857 8.47359 17.1158 8.44046 17.2807 8.44046C17.4456 8.44046 17.5745 8.47359 17.6672 8.53987C17.7625 8.60614 17.8295 8.70046 17.8682 8.82281C17.9094 8.94516 17.93 9.08918 17.93 9.25487V9.89722C17.93 10.0629 17.9094 10.2069 17.8682 10.3293C17.8295 10.4516 17.7625 10.5459 17.6672 10.6122C17.5745 10.6785 17.4456 10.7116 17.2807 10.7116ZM17.2807 10.4096C17.3606 10.4096 17.416 10.3866 17.4469 10.3407C17.4804 10.2949 17.4997 10.235 17.5049 10.161C17.5126 10.0846 17.5165 10.0056 17.5165 9.92398V9.23193C17.5165 9.14781 17.5126 9.06879 17.5049 8.99487C17.4997 8.92095 17.4804 8.86104 17.4469 8.81516C17.416 8.76673 17.3606 8.74251 17.2807 8.74251C17.2009 8.74251 17.1442 8.76673 17.1107 8.81516C17.0772 8.86104 17.0566 8.92095 17.0488 8.99487C17.0437 9.06879 17.0411 9.14781 17.0411 9.23193V9.92398C17.0411 10.0056 17.0437 10.0846 17.0488 10.161C17.0566 10.235 17.0772 10.2949 17.1107 10.3407C17.1442 10.3866 17.2009 10.4096 17.2807 10.4096ZM18.5129 10.681V8.47104H18.9265V8.78457C19.0089 8.64947 19.0914 8.55898 19.1738 8.5131C19.2563 8.46722 19.3387 8.44428 19.4212 8.44428C19.4315 8.44428 19.4405 8.44428 19.4482 8.44428C19.4585 8.44428 19.4714 8.44555 19.4869 8.4481V8.89928C19.4559 8.88653 19.4199 8.87634 19.3786 8.86869C19.34 8.85849 19.3001 8.8534 19.2588 8.8534C19.1944 8.8534 19.1352 8.86869 19.0811 8.89928C19.0295 8.92732 18.978 8.9834 18.9265 9.06751V10.681H18.5129ZM19.9362 10.681V8.47104H20.3188V8.68134C20.3935 8.59722 20.476 8.53477 20.5661 8.49398C20.6563 8.4532 20.7491 8.43281 20.8444 8.43281C20.9269 8.43281 21.0003 8.4532 21.0647 8.49398C21.1317 8.53477 21.1793 8.60742 21.2077 8.71193C21.2876 8.61506 21.3739 8.54496 21.4666 8.50163C21.562 8.45575 21.6612 8.43281 21.7642 8.43281C21.8364 8.43281 21.9021 8.45065 21.9613 8.48634C22.0206 8.51947 22.0682 8.57428 22.1043 8.65075C22.1404 8.72467 22.1584 8.82281 22.1584 8.94516V10.681H21.7797V8.97193C21.7797 8.86487 21.7616 8.79349 21.7256 8.75781C21.6921 8.71957 21.6457 8.70045 21.5864 8.70045C21.5297 8.70045 21.4705 8.71702 21.4087 8.75016C21.3468 8.78075 21.2901 8.82408 21.2386 8.88016C21.2386 8.89036 21.2386 8.90055 21.2386 8.91075C21.2386 8.92094 21.2386 8.93242 21.2386 8.94516V10.681H20.8599V8.97193C20.8599 8.86487 20.8418 8.79349 20.8058 8.75781C20.7723 8.71957 20.7259 8.70045 20.6666 8.70045C20.6099 8.70045 20.5507 8.71702 20.4888 8.75016C20.4296 8.78075 20.3729 8.82408 20.3188 8.88016V10.681H19.9362ZM23.2742 10.7116C23.0912 10.7116 22.9444 10.6556 22.8336 10.5434C22.7228 10.4287 22.6597 10.2783 22.6442 10.0922L22.9882 9.98898C23.0088 10.1292 23.0436 10.235 23.0925 10.3063C23.1415 10.3752 23.2136 10.4096 23.3089 10.4096C23.3837 10.4096 23.4403 10.3892 23.479 10.3484C23.5176 10.3051 23.537 10.2477 23.537 10.1763C23.537 10.1126 23.5228 10.0553 23.4945 10.0043C23.4661 9.9533 23.4197 9.90104 23.3553 9.84751L22.9727 9.52251C22.8954 9.45624 22.8297 9.38232 22.7756 9.30075C22.7241 9.21918 22.6983 9.1134 22.6983 8.9834C22.6983 8.86614 22.7215 8.768 22.7679 8.68898C22.8168 8.60742 22.8838 8.54624 22.9688 8.50545C23.0564 8.46212 23.1582 8.44046 23.2742 8.44046C23.4519 8.44046 23.5872 8.49781 23.68 8.61251C23.7753 8.72467 23.8294 8.86104 23.8423 9.02163L23.564 9.12487C23.5537 9.0484 23.5383 8.98212 23.5176 8.92604C23.497 8.86742 23.4687 8.82281 23.4326 8.79222C23.3965 8.75908 23.3489 8.74251 23.2896 8.74251C23.2226 8.74251 23.1685 8.76545 23.1273 8.81134C23.0887 8.85467 23.0693 8.90693 23.0693 8.9681C23.0693 9.00634 23.0771 9.04457 23.0925 9.08281C23.1106 9.11849 23.1402 9.15418 23.1814 9.18987L23.5756 9.54928C23.6297 9.59771 23.68 9.64996 23.7263 9.70604C23.7753 9.76212 23.8152 9.82585 23.8461 9.89722C23.8771 9.96859 23.8925 10.0514 23.8925 10.1457C23.8925 10.2707 23.8668 10.3752 23.8152 10.4593C23.7637 10.5434 23.6916 10.6071 23.5988 10.6505C23.506 10.6912 23.3978 10.7116 23.2742 10.7116Z" fill="black"/>
    </g>
    <defs>
        <clipPath id="clip0_1_231">
            <rect width="24" height="13" fill="white"/>
        </clipPath>
    </defs>
</svg>