<svg width="147" height="35" viewBox="0 0 147 35" fill="none" xmlns="http://www.w3.org/2000/svg">
<path d="M98.4422 18.1998C99.9315 18.1998 101.139 16.9925 101.139 15.5032C101.139 14.0139 99.9315 12.8066 98.4422 12.8066C96.9529 12.8066 95.7456 14.0139 95.7456 15.5032C95.7456 16.9925 96.9529 18.1998 98.4422 18.1998Z" fill="#00537A"/>
<path d="M132.317 17.936C128.102 17.0725 130.403 11.5366 133.865 13.1099C137.512 14.7674 134.666 19.0153 132.174 20.0032C132.042 20.0545 131.942 20.0191 131.874 19.8971L131.578 19.3629C131.507 19.2385 131.524 19.1275 131.629 19.03L132.419 18.3092C132.629 18.1165 132.595 17.9921 132.317 17.936Z" fill="#00537A"/>
<path d="M38.4185 14.6768C38.4185 14.6163 38.4304 14.5564 38.4535 14.5004C38.4767 14.4445 38.5107 14.3937 38.5535 14.3509C38.5963 14.308 38.6471 14.2741 38.7031 14.2509C38.759 14.2277 38.8189 14.2158 38.8795 14.2158L47.1339 14.2012C48.3324 14.1991 49.5195 14.4166 50.6274 14.8411C51.7353 15.2657 52.7424 15.8891 53.5912 16.6756C54.4399 17.4622 55.1137 18.3965 55.5739 19.4253C56.0342 20.4541 56.272 21.5571 56.2738 22.6715V23.696C56.2774 25.9461 55.3195 28.1057 53.611 29.6996C51.9025 31.2936 49.5831 32.1914 47.1632 32.1956L38.9087 32.2102C38.7865 32.2102 38.6692 32.1616 38.5828 32.0752C38.4963 31.9887 38.4477 31.8715 38.4477 31.7492L38.4185 14.6768ZM43.8263 19.1187L43.8263 27.2195C43.8263 27.27 43.8463 27.3184 43.882 27.354C43.9177 27.3897 43.9661 27.4098 44.0166 27.4098L46.5522 27.4098C47.6749 27.4098 48.7517 26.9761 49.5456 26.2041C50.3395 25.4322 50.7855 24.3852 50.7855 23.2935V23.0447C50.7855 21.953 50.3395 20.906 49.5456 20.1341C48.7517 19.3621 47.6749 18.9285 46.5522 18.9285L44.0166 18.9285C43.9661 18.9285 43.9177 18.9485 43.882 18.9842C43.8463 19.0199 43.8263 19.0683 43.8263 19.1187Z" fill="#00537A"/>
<path d="M70.9903 25.6492C70.9903 26.5506 70.8128 27.4432 70.4678 28.276C70.1229 29.1088 69.6173 29.8655 68.9799 30.5028C68.3425 31.1402 67.5858 31.6458 66.753 31.9908C65.9202 32.3357 65.0277 32.5133 64.1263 32.5133C62.3058 32.5133 60.5599 31.7901 59.2726 30.5028C57.9854 29.2156 57.2622 27.4697 57.2622 25.6492C57.2622 23.8288 57.9854 22.0829 59.2726 20.7956C60.5599 19.5083 62.3058 18.7852 64.1263 18.7852C65.9467 18.7852 67.6926 19.5083 68.9799 20.7956C70.2672 22.0829 70.9903 23.8288 70.9903 25.6492ZM66.4497 25.5504C66.4497 24.9362 66.2056 24.3471 65.7713 23.9127C65.337 23.4784 64.7479 23.2344 64.1336 23.2344C63.8294 23.2344 63.5283 23.2943 63.2473 23.4107C62.9663 23.5271 62.7109 23.6977 62.4959 23.9127C62.2808 24.1278 62.1102 24.3831 61.9938 24.6641C61.8774 24.9451 61.8175 25.2463 61.8175 25.5504C61.8175 25.8546 61.8774 26.1558 61.9938 26.4368C62.1102 26.7178 62.2808 26.9731 62.4959 27.1881C62.7109 27.4032 62.9663 27.5738 63.2473 27.6902C63.5283 27.8066 63.8294 27.8665 64.1336 27.8665C64.7479 27.8665 65.337 27.6225 65.7713 27.1881C66.2056 26.7538 66.4497 26.1647 66.4497 25.5504Z" fill="#00537A"/>
<path d="M131.647 25.6707C131.647 27.4912 130.924 29.2371 129.637 30.5243C128.349 31.8116 126.603 32.5348 124.783 32.5348C122.963 32.5348 121.217 31.8116 119.929 30.5243C118.642 29.2371 117.919 27.4912 117.919 25.6707C117.919 23.8502 118.642 22.1043 119.929 20.8171C121.217 19.5298 122.963 18.8066 124.783 18.8066C126.603 18.8066 128.349 19.5298 129.637 20.8171C130.924 22.1043 131.647 23.8502 131.647 25.6707ZM127.11 25.5719C127.11 24.9557 126.865 24.3648 126.43 23.929C125.994 23.4933 125.403 23.2485 124.787 23.2485C124.17 23.2485 123.58 23.4933 123.144 23.929C122.708 24.3648 122.463 24.9557 122.463 25.5719C122.463 26.1881 122.708 26.7791 123.144 27.2148C123.58 27.6505 124.17 27.8953 124.787 27.8953C125.403 27.8953 125.994 27.6505 126.43 27.2148C126.865 26.7791 127.11 26.1881 127.11 25.5719Z" fill="#00537A"/>
<path d="M77.4406 20.4348C79.6469 18.5029 83.5546 17.9248 85.2852 20.8409C85.3535 20.9556 85.4328 20.9641 85.5231 20.8665C87.0208 19.2444 88.7941 18.5822 90.8431 18.8797C93.6092 19.2822 93.9348 21.3641 93.9495 23.9107C93.9641 26.5695 93.9641 29.21 93.9495 31.8322C93.9495 31.9331 93.9094 32.0299 93.838 32.1013C93.7667 32.1726 93.6699 32.2127 93.569 32.2127L89.4673 32.2164C89.3713 32.2164 89.2791 32.1786 89.2112 32.1114C89.1433 32.0441 89.1051 31.9529 89.1051 31.8578C89.1088 30.5223 89.4308 24.3059 88.7136 23.5668C87.8574 22.6886 86.3024 23.3289 85.6511 24.1302C85.5731 24.2278 85.534 24.3376 85.534 24.4595L85.556 31.8541C85.5565 31.9015 85.5475 31.9486 85.5295 31.9925C85.5115 32.0364 85.4849 32.0764 85.4512 32.1101C85.4175 32.1437 85.3774 32.1705 85.3332 32.1887C85.289 32.207 85.2416 32.2164 85.1938 32.2164L81.0775 32.2127C81.0396 32.2127 81.002 32.2052 80.9669 32.1907C80.9318 32.1762 80.9 32.1549 80.8731 32.1281C80.8463 32.1012 80.825 32.0694 80.8105 32.0343C80.7959 31.9992 80.7885 31.9616 80.7885 31.9237C80.7848 30.504 81.1324 24.5657 80.4775 23.6912C79.7676 22.7399 78.1102 23.2045 77.426 24.0241C77.3479 24.1193 77.3089 24.2278 77.3089 24.3498L77.3089 31.8395C77.3089 31.9385 77.2692 32.0334 77.1985 32.1034C77.1278 32.1734 77.032 32.2127 76.932 32.2127L73.0097 32.2164C72.9229 32.2164 72.8369 32.1992 72.7568 32.1659C72.6767 32.1326 72.6039 32.0837 72.5427 32.0222C72.4815 31.9606 72.433 31.8876 72.4002 31.8073C72.3673 31.727 72.3506 31.6409 72.3511 31.5541L72.4316 19.5932C72.4325 19.4706 72.4819 19.3534 72.569 19.267C72.656 19.1807 72.7737 19.1322 72.8963 19.1322L76.9101 19.1542C76.9718 19.1541 77.0328 19.1678 77.0887 19.1941C77.1446 19.2205 77.194 19.259 77.2335 19.3068C77.2729 19.3547 77.3014 19.4107 77.317 19.471C77.3326 19.5312 77.3348 19.5942 77.3235 19.6554L77.2028 20.2957C77.1515 20.5738 77.2308 20.6202 77.4406 20.4348Z" fill="#00537A"/>
<path d="M107.792 20.4358C109.983 18.6906 114.301 17.8197 115.925 20.6883C116.276 21.3079 116.453 22.3214 116.456 23.7288C116.463 26.4462 116.463 29.1452 116.456 31.826C116.456 31.9288 116.415 32.0275 116.342 32.1002C116.269 32.1729 116.171 32.2138 116.068 32.2138L112.252 32.2175C112.155 32.2175 112.059 32.1981 111.969 32.1605C111.88 32.1229 111.799 32.0679 111.732 31.9986C111.664 31.9293 111.611 31.8473 111.576 31.7573C111.541 31.6673 111.524 31.5712 111.527 31.4747C111.578 29.4574 111.575 27.4219 111.516 25.368C111.494 24.6436 111.637 23.6666 110.795 23.363C109.795 23.0019 108.857 23.1581 107.982 23.8313C107.616 24.1126 107.66 24.4094 107.667 24.9253C107.684 27.2133 107.687 29.5111 107.674 31.8186C107.673 31.9247 107.631 32.0262 107.556 32.1009C107.482 32.1755 107.381 32.2174 107.276 32.2175L103.207 32.2175C103.157 32.2175 103.108 32.2077 103.063 32.1888C103.017 32.1698 102.975 32.1421 102.94 32.1071C102.905 32.0721 102.878 32.0305 102.859 31.9848C102.84 31.9391 102.83 31.8901 102.83 31.8406L102.83 19.6492C102.83 19.5172 102.882 19.3906 102.975 19.2973C103.067 19.204 103.193 19.1516 103.324 19.1516L107.063 19.1333C107.488 19.1308 107.672 19.3394 107.616 19.759L107.543 20.2931C107.509 20.5468 107.592 20.5944 107.792 20.4358Z" fill="#00537A"/>
<path d="M139.064 23.1143C139.074 23.2051 139.113 23.2901 139.176 23.3558C139.239 23.4214 139.322 23.4639 139.412 23.4765C140.868 23.679 142.157 23.907 143.279 24.1607C146.993 24.995 147.725 29.4771 144.6 31.4529C141.709 33.2823 137.176 32.5103 134.311 30.9297C134.249 30.8957 134.195 30.8495 134.152 30.7939C134.108 30.7384 134.077 30.6745 134.059 30.6061C134.04 30.5378 134.036 30.4664 134.046 30.3963C134.056 30.3261 134.08 30.2586 134.117 30.1979L135.694 27.5781C135.719 27.5369 135.752 27.5011 135.791 27.4727C135.83 27.4443 135.875 27.4239 135.921 27.4127C135.968 27.4015 136.017 27.3996 136.065 27.4073C136.112 27.415 136.158 27.432 136.199 27.4574C137.893 28.5075 139.997 29.2539 141.998 28.6355C142.069 28.6138 142.132 28.5737 142.181 28.5194C142.231 28.465 142.265 28.3984 142.281 28.3265C142.296 28.2545 142.292 28.1798 142.268 28.11C142.245 28.0402 142.204 27.9778 142.148 27.9294C141.834 27.6562 141.38 27.494 140.787 27.4427C138.85 27.272 137.241 26.8207 135.958 26.089C133.931 24.9364 133.799 21.8264 135.409 20.3189C137.933 17.9589 142.715 18.7858 145.573 20.264C145.905 20.4372 145.977 20.6848 145.789 21.0068L144.395 23.3887C144.372 23.428 144.341 23.4622 144.305 23.4891C144.268 23.516 144.226 23.5351 144.182 23.545C144.138 23.555 144.092 23.5557 144.047 23.547C144.003 23.5384 143.96 23.5206 143.923 23.4948C142.806 22.7362 141.551 22.3557 140.158 22.3532C139.375 22.3532 139.01 22.6069 139.064 23.1143Z" fill="#00537A"/>
<path d="M100.243 19.1541L96.3941 19.1474C96.1152 19.1469 95.8888 19.3725 95.8883 19.6514L95.8672 31.7038C95.8668 31.9826 96.0924 32.2091 96.3713 32.2096L100.22 32.2163C100.499 32.2168 100.726 31.9911 100.726 31.7122L100.747 19.6599C100.748 19.381 100.522 19.1546 100.243 19.1541Z" fill="#00537A"/>
<rect y="23.2852" width="32.93" height="16.465" rx="3" transform="rotate(-45 0 23.2852)" fill="white"/>
<path d="M13.5881 31.5945C12.5142 32.6684 10.773 32.6684 9.69901 31.5945L3.33404 25.2295C2.2601 24.1556 2.2601 22.4144 3.33404 21.3404L11.9023 12.7722L22.1563 23.0262L13.5881 31.5945Z" fill="#00537A" stroke="#003E6F" stroke-width="0.5"/>
<path d="M21.3406 3.33325C22.4146 2.25931 24.1558 2.25931 25.2297 3.33325L31.5947 9.69822C32.6686 10.7722 32.6686 12.5134 31.5947 13.5873L23.0264 22.1555L12.7724 11.9015L21.3406 3.33325Z" fill="#E31837" stroke="#DC0005" stroke-width="0.5"/>
<circle cx="23.2856" cy="11.6426" r="2.49416" transform="rotate(-45 23.2856 11.6426)" fill="white" stroke="#DC0005" stroke-width="0.5"/>
<circle cx="7.76267" cy="23.0273" r="2.49416" transform="rotate(-45 7.76267 23.0273)" fill="white" stroke="#003E6F" stroke-width="0.5"/>
<circle cx="15.5244" cy="23.0273" r="2.49416" transform="rotate(-45 15.5244 23.0273)" fill="white" stroke="#003E6F" stroke-width="0.5"/>
</svg>
