<svg width="67" height="47" viewBox="0 0 67 47" fill="none" xmlns="http://www.w3.org/2000/svg">
    <mask id="path-1-outside-1_1_286" maskUnits="userSpaceOnUse" x="0" y="-1" width="67" height="48" fill="black">
        <rect fill="white" y="-1" width="67" height="48"/>
        <path d="M13.4829 1L13.6078 1.00715C13.6489 1.09768 13.7081 1.17332 13.7855 1.23407C15.9991 2.99467 18.215 4.75288 20.4332 6.50871L21.8355 7.6201C21.8825 7.65703 21.9118 7.70587 21.9235 7.76662C21.9904 8.13232 22.0643 8.36698 22.1452 8.47062C23.0778 9.66301 24.0004 10.8614 24.913 12.0657C24.9506 12.1145 24.9986 12.1371 25.0573 12.1336C26.2796 12.0573 27.4843 11.8715 28.6714 11.5761C29.2521 11.4314 29.5231 11.6869 30.0615 11.7458C31.1536 11.8661 32.2457 11.9817 33.3378 12.0925C33.4058 12.0984 33.4698 12.0841 33.5296 12.0496L35.0375 11.1741C35.0758 11.1519 35.118 11.1377 35.1618 11.1323C35.2055 11.1269 35.2499 11.1304 35.2923 11.1425C35.3347 11.1546 35.3743 11.1752 35.4088 11.203C35.4433 11.2308 35.472 11.2653 35.4933 11.3045C35.9073 12.0573 36.4604 12.6696 37.1525 13.1413C37.7508 13.5487 38.152 14.5583 38.488 15.1979C38.5209 15.2611 38.5696 15.2777 38.6341 15.248L39.4857 14.8602C39.5001 14.8537 39.5159 14.8509 39.5317 14.8521C39.5474 14.8534 39.5626 14.8586 39.5759 14.8672C39.5892 14.8759 39.6001 14.8879 39.6077 14.9019C39.6153 14.916 39.6193 14.9317 39.6194 14.9478C39.6159 15.6482 39.5925 16.3576 39.549 17.0759C39.5385 17.2391 39.4746 17.628 39.3573 18.2426C39.2622 18.7429 39.2558 19.2534 39.3379 19.7739C39.3485 19.8371 39.3854 19.868 39.4488 19.8668L40.9004 19.8365C40.9488 19.8354 40.9962 19.8515 41.0344 19.8821C41.0726 19.9128 41.0992 19.956 41.1098 20.0044L41.9333 23.8854C41.943 23.9328 41.9671 23.976 42.0021 24.0089C42.0371 24.0419 42.0813 24.063 42.1286 24.0694C43.626 24.2677 44.8576 23.9068 46.3867 23.7371L46.5116 23.7889C46.6782 24.1772 46.9592 24.4327 47.3545 24.5554V24.6751C47.338 25.042 47.2378 25.3702 47.0536 25.6597C47.0207 25.7097 47.0266 25.7549 47.0712 25.7954C47.585 26.2624 48.1803 26.5435 48.8571 26.6388C48.8699 26.6407 48.8829 26.6392 48.8949 26.6346C48.907 26.6299 48.9176 26.6222 48.9259 26.6122C48.9342 26.6021 48.9398 26.5901 48.9423 26.5773C48.9447 26.5645 48.9439 26.5512 48.9398 26.5388C48.7656 26.0045 48.3891 25.5114 48.8571 24.9503L49.0261 24.8681L49.7299 23.8586C49.7627 23.8109 49.8073 23.7787 49.8636 23.7621C50.1792 23.6703 50.344 23.4714 50.358 23.1653C50.3968 22.2951 50.7539 22.4148 51.3839 22.1218C51.4355 22.098 51.4724 22.0598 51.4947 22.0074C51.7833 21.2981 52.7405 20.846 53.4109 20.7138C53.4695 20.7031 53.5176 20.6745 53.5552 20.628C54.0279 20.0491 54.4813 19.463 54.9153 18.8698C55.137 18.5684 55.4138 18.5309 55.7458 18.7572C55.7916 18.7882 55.8285 18.7799 55.8567 18.7322L56.2367 18.0675C56.2696 18.0104 56.3183 17.9841 56.3828 17.9889C56.7171 18.0151 56.8895 17.8466 56.9001 17.4832C56.9153 17.4832 56.93 17.4832 56.9441 17.4832C57.5095 17.3784 58.0098 17.4969 58.445 17.8388C58.4907 17.8746 58.5036 17.9198 58.4837 17.9746C58.3453 18.3356 58.089 18.541 57.7148 18.5911C57.6491 18.6006 57.6068 18.6369 57.5881 18.7001C57.513 18.9478 57.3458 19.0783 57.0866 19.0914C57.0209 19.0949 56.9881 19.1301 56.9881 19.1968V19.4058C56.9881 19.4606 56.9658 19.5023 56.9212 19.5309L55.9693 20.1635C55.9188 20.1968 55.8848 20.2427 55.8672 20.301C55.703 20.8287 55.3663 21.1956 54.8572 21.4017C54.8405 21.4079 54.8263 21.4196 54.8169 21.435C54.8075 21.4504 54.8035 21.4685 54.8055 21.4865C54.8076 21.5045 54.8155 21.5212 54.8281 21.5341C54.8407 21.5469 54.8571 21.555 54.8748 21.5572C55.1728 21.5988 55.4314 21.7221 55.6508 21.927C55.6895 21.9628 55.7317 21.9687 55.7775 21.9449L56.2755 21.6822C56.3229 21.6573 56.3753 21.6436 56.4286 21.642C56.482 21.6403 56.535 21.6509 56.5837 21.6729C56.6324 21.6949 56.6755 21.7277 56.7099 21.7689C56.7442 21.8101 56.769 21.8587 56.7822 21.9109L56.9494 22.5774C56.9658 22.6441 57.0045 22.6918 57.0655 22.7204L57.5934 22.9741C57.6438 22.9991 57.6972 23.008 57.7535 23.0009C57.9247 22.9818 58.0643 23.0444 58.1723 23.1885C58.2215 23.254 58.2696 23.2534 58.3165 23.1867C58.4995 22.9354 58.7295 22.9181 59.0063 23.1349C59.0919 23.2016 59.1447 23.182 59.1646 23.0759C59.2227 22.7811 58.9746 22.1397 59.2227 21.9949C59.2908 21.9556 59.3435 21.9711 59.3811 22.0414L59.4444 22.1629C59.4843 22.2379 59.5347 22.2469 59.5957 22.1897C59.8386 21.9645 59.8562 21.7144 59.6485 21.4392C59.6051 21.3821 59.6092 21.3296 59.6608 21.282L59.9107 21.0515C59.9776 20.9884 60.0368 20.9955 60.0884 21.0729L60.194 21.2302C60.2304 21.2838 60.2773 21.3231 60.3348 21.3481C60.6409 21.4851 60.8937 21.6912 61.0931 21.9663C61.1271 22.0128 61.1465 22.0646 61.1512 22.1218L61.1899 22.5167C61.1981 22.6096 61.2474 22.6495 61.3377 22.6364C61.6192 22.5953 61.9571 22.4452 62.2316 22.6685C62.282 22.7102 62.3078 22.7632 62.309 22.8276L62.3143 23.1492C62.3178 23.285 62.3606 23.2999 62.4427 23.1939C62.763 22.7758 63.604 23.5655 63.97 23.8889C64.0134 23.9271 64.0639 23.9461 64.1213 23.9461L65.7771 23.93C65.8144 23.9298 65.8512 23.9392 65.884 23.9573C65.9168 23.9754 65.9446 24.0016 65.9648 24.0335C65.985 24.0654 65.9969 24.1019 65.9995 24.1398C66.002 24.1776 65.9951 24.2155 65.9794 24.2499C65.6873 24.886 64.892 24.9449 64.7425 25.4488C64.5606 26.0659 64.1864 26.269 63.6199 26.0581C63.5706 26.039 63.5454 26.0563 63.5442 26.1099L63.5336 26.612C63.5325 26.6534 63.5216 26.6939 63.5018 26.7301C63.482 26.7663 63.4539 26.7971 63.4199 26.8199C63.3859 26.8427 63.347 26.8568 63.3064 26.861C63.2659 26.8653 63.2249 26.8596 63.187 26.8443L62.543 26.5852C62.4503 26.5483 62.4157 26.5793 62.4392 26.6781C62.5037 26.9473 62.4069 27.1278 62.1489 27.2195C62.0386 27.2576 62.0245 27.3184 62.1066 27.4018L62.2017 27.4983C62.2486 27.5447 62.2527 27.5948 62.214 27.6484C62.099 27.8139 61.9465 27.8527 61.7565 27.7645C61.6861 27.7323 61.6228 27.7431 61.5664 27.7967L60.9893 28.3452C60.9459 28.3869 60.8961 28.3982 60.8398 28.3792L59.9758 28.0808C59.9218 28.0617 59.8808 28.0266 59.8526 27.9753C59.6169 27.5304 58.7019 27.9575 58.3007 28.0325C57.7857 28.3017 57.2819 28.4268 56.7892 28.4078C56.7118 28.4047 56.6377 28.375 56.5792 28.3237C56.5207 28.2724 56.4812 28.2025 56.4672 28.1254C56.3247 27.3285 55.9235 27.9146 55.5734 27.4965L55.6614 27.3178C55.8655 26.7973 56.1804 26.3547 56.6062 25.9902C56.652 25.9497 56.6749 25.8985 56.6749 25.8365C56.6655 25.1183 56.3892 24.5512 55.8461 24.1355C55.7628 24.0736 55.7048 24.092 55.6719 24.1909L55.4696 24.7788C55.452 24.8312 55.4232 24.877 55.3834 24.9163C54.8115 25.4774 54.1798 25.7865 53.5094 26.1921C52.5892 26.7514 52.7264 25.4024 51.954 25.9277C51.9082 25.9586 51.8853 26.0015 51.8853 26.0563V26.6603C51.8853 26.7258 51.8566 26.7728 51.7991 26.8014L51.5757 26.9176C51.5018 26.9557 51.4924 27.0057 51.5475 27.0677C51.9006 27.4727 52.0202 27.9325 51.9065 28.4471C51.7903 28.9795 51.3487 29.101 50.9669 28.7437C50.9199 28.6996 50.8648 28.677 50.8014 28.6758C50.663 28.6734 50.5399 28.7115 50.4319 28.7901C50.3498 28.8497 50.3586 28.8884 50.4583 28.9063C50.6894 28.9468 50.8149 29.0778 50.8349 29.2994C50.8407 29.3637 50.8138 29.4078 50.7539 29.4316L50.1416 29.6675C50.0959 29.6853 50.0888 29.7133 50.1205 29.7514L50.3668 30.0498C50.4865 30.1952 50.4736 30.3268 50.3281 30.4447C50.1158 30.6174 49.8765 30.724 49.6102 30.7645C49.5657 30.7717 49.5375 30.7967 49.5258 30.8396C49.4659 31.0528 49.4536 31.2654 49.4888 31.4775C49.4994 31.537 49.4894 31.5924 49.4589 31.6437C49.1563 32.1559 48.6912 32.3905 48.0636 32.3477C47.348 32.2988 46.6929 32.1827 46.0981 31.9992C46.0395 31.9825 45.9937 31.9992 45.9609 32.0493C45.8119 32.2756 45.6055 32.4102 45.3415 32.4531C45.2829 32.4638 45.2354 32.4936 45.199 32.5424C44.9233 32.9224 44.7961 33.3566 44.8172 33.845C44.8195 33.9117 44.8535 33.9534 44.9192 33.9701C45.4102 34.0916 46.0999 34.0094 45.9556 34.7777C45.9427 34.8468 45.9697 34.8873 46.0366 34.8992C46.7421 35.0243 47.7627 34.4882 47.9774 35.5871C48.046 35.9409 47.8507 36.175 47.6395 36.4269C47.5985 36.477 47.5774 36.5341 47.5762 36.5985C47.5586 37.5097 47.9322 38.1732 48.697 38.589C48.769 38.6284 48.8283 38.688 48.8679 38.7605C48.9076 38.8331 48.9258 38.9155 48.9205 38.9981C48.8888 39.4984 48.7287 40.4276 48.141 40.6098C48.0835 40.6265 48.0454 40.664 48.0266 40.7224C47.7609 41.5443 47.4636 41.8177 46.9691 42.4752C46.9351 42.5205 46.9199 42.5717 46.9234 42.6289L46.992 43.869C46.9955 43.9297 46.9838 43.9881 46.9568 44.0441L46.7017 44.5604C46.6594 44.645 46.6841 44.6962 46.7756 44.7141C46.9668 44.7522 47.1011 44.8475 47.1785 45C46.8618 44.9273 46.5257 44.6343 46.1703 44.1209C46.1583 44.1036 46.1421 44.0898 46.1231 44.0809C46.1042 44.072 46.0833 44.0684 46.0626 44.0704C46.0419 44.0724 46.022 44.0799 46.0051 44.0923C45.9881 44.1046 45.9747 44.1212 45.9662 44.1405C45.8307 44.4515 45.5157 44.3871 45.4559 44.0548C45.4465 44.0048 45.4248 43.9982 45.3908 44.0351C44.6395 44.8499 43.9497 44.2067 43.5556 43.4955C43.5227 43.4371 43.4752 43.4181 43.413 43.4383C42.5403 43.7242 41.7907 43.5974 40.8934 43.7206C40.8359 43.729 40.7796 43.7254 40.7244 43.7099L40.2282 43.5706L40.3162 43.5259L41.1379 43.567C41.1843 43.5693 41.2306 43.5615 41.2736 43.5438C41.3167 43.5262 41.3555 43.4993 41.3873 43.465C41.4191 43.4307 41.4431 43.3897 41.4578 43.345C41.4725 43.3003 41.4774 43.2529 41.4723 43.2061C41.372 42.2894 41.2734 41.3496 41.8699 40.5348C41.9133 40.4752 41.901 40.4323 41.833 40.4061C41.3297 40.2149 40.7825 40.4365 40.4499 39.8361C40.4218 39.7837 40.3784 39.7551 40.3197 39.7504C40.0957 39.7313 39.9203 39.6307 39.7936 39.4484C39.7549 39.3924 39.7021 39.3567 39.6353 39.3412L38.9244 39.184C38.8611 39.1697 38.803 39.1816 38.7502 39.2197C37.7473 39.9469 36.1689 37.9368 35.3015 37.4365C34.7067 37.0916 34.0487 36.8718 33.5806 36.359C33.3683 36.1256 33.1636 35.8837 32.9665 35.6336C32.929 35.5859 32.8809 35.5687 32.8222 35.5818C31.4515 35.8694 29.8327 33.4805 28.8263 32.7586C27.5999 31.8777 26.5177 31.197 25.7154 30.0838C25.679 30.0326 25.6585 29.9754 25.6538 29.9122C25.6116 29.2869 25.5013 28.674 25.323 28.0736C25.3054 28.0129 25.2684 27.9682 25.2121 27.9396L24.8462 27.7484C24.7922 27.7198 24.7535 27.6775 24.73 27.6216C24.3945 26.8199 24.1488 25.992 23.9928 25.1379C23.8362 24.2874 23.0725 23.7192 22.3159 23.4297C22.2408 23.4023 22.2021 23.4285 22.1998 23.5083C22.1822 23.9729 21.8391 24.3035 21.4027 24.0551C20.5769 23.5858 19.7129 23.4506 18.8109 23.6495C18.7523 23.662 18.6917 23.6584 18.6354 23.6393C18.579 23.6201 18.529 23.586 18.4906 23.5405C18.1563 23.1438 17.7463 22.8574 17.2607 22.6811C17.2225 22.6671 17.1874 22.6456 17.1576 22.6177C17.1277 22.5899 17.1036 22.5562 17.0867 22.5188C17.0698 22.4813 17.0605 22.4408 17.0593 22.3996C17.058 22.3585 17.0649 22.3175 17.0794 22.279L17.3645 21.5214C17.3868 21.4631 17.3891 21.4041 17.3715 21.3445C17.2765 21.0086 16.9316 20.4315 17.5053 20.2778C17.5616 20.2623 17.595 20.2248 17.6056 20.1652C17.6372 19.9741 16.9475 19.7203 16.805 19.6042C16.7416 19.5518 16.7434 19.5023 16.8102 19.4559C16.9733 19.3439 17.0624 19.1813 17.0777 18.9681C17.1639 17.7245 16.3088 17.8299 15.4747 17.9371C15.4137 17.9454 15.3557 17.9371 15.3005 17.9121L14.5105 17.5476C14.46 17.5237 14.4378 17.4844 14.4436 17.4296L14.5052 16.8078C14.5134 16.7197 14.4741 16.6708 14.3873 16.6613L13.4389 16.5648C13.3767 16.5589 13.3286 16.5285 13.2946 16.4737L12.5785 15.3141C12.5257 15.2295 12.4934 15.2372 12.4817 15.3373C12.3621 16.2897 11.5967 15.5624 11.1005 15.6714C11.0277 15.6881 11.0248 15.7131 11.0917 15.7465C11.6107 16.0038 11.7638 16.706 12.0207 17.2134C12.0571 17.2849 12.0424 17.3439 11.9767 17.3903C11.7949 17.5202 11.5861 17.5416 11.3503 17.4547C11.2928 17.4344 11.2682 17.3933 11.2764 17.3314L11.3204 17.0348C11.331 16.9633 11.3046 16.9115 11.2412 16.8793L10.4072 16.4612C10.3509 16.4326 10.3069 16.4457 10.2752 16.5005L9.57843 17.7066C9.54441 17.765 9.49515 17.8031 9.43063 17.821C8.94851 17.9556 8.46228 17.9746 7.97195 17.8781C7.91096 17.8662 7.85348 17.8757 7.79952 17.9067C7.26109 18.2141 6.85463 18.8251 6.29509 18.9824C6.23527 18.9991 6.20242 19.0384 6.19656 19.1003C6.10975 19.958 6.22471 20.7835 6.54143 21.5768C6.56489 21.6364 6.56078 21.6936 6.52911 21.7483C6.28277 22.1843 5.87104 22.4934 5.39947 22.0914C5.35255 22.0509 5.29859 22.0289 5.23759 22.0253C4.11382 21.9562 3.03462 21.7049 2 21.2713L4.27687 2.92081C4.28237 2.87576 4.30168 2.83367 4.33204 2.8006C4.3624 2.76752 4.40223 2.74518 4.44579 2.73677L13.4829 1ZM21.9218 23.2975L21.9288 23.1706C22.5218 23.0688 22.93 23.2564 23.3804 23.6995C23.6901 24.0051 24.0561 24.2534 24.1898 24.6876C24.3799 25.3059 24.452 25.9205 24.679 26.528C24.7846 26.808 24.8778 27.0951 24.9588 27.3893C24.9764 27.45 25.0145 27.4923 25.0731 27.5161C25.8368 27.8217 25.879 28.8562 25.916 29.6746C25.9183 29.7342 25.9383 29.7866 25.9758 29.8318C26.6421 30.6359 27.1424 31.1517 27.4767 31.3792C28.8245 32.2976 30.0586 33.3512 31.1788 34.5401C31.3923 34.7676 31.7595 35.0183 32.2803 35.2923C32.3319 35.3197 32.387 35.3298 32.4457 35.3227L32.9542 35.2619C33.0199 35.2548 33.0733 35.2762 33.1143 35.3263C33.5349 35.8337 33.936 36.3626 34.566 36.6431C35.3437 36.9921 36.0352 37.4656 36.6405 38.0636C37.1279 38.5443 37.6153 38.7819 38.1625 39.1339C38.2141 39.1673 38.264 39.1649 38.3121 39.1268C38.9068 38.6569 39.1813 39.0017 39.7989 39.0392C39.8634 39.044 39.915 39.072 39.9538 39.1232C40.0957 39.3055 40.281 39.4216 40.5098 39.4716C40.5708 39.4859 40.6218 39.5175 40.6629 39.5663L40.9532 39.9219C40.986 39.9636 41.0288 39.9833 41.0816 39.9809C41.5086 39.963 41.8951 40.0738 42.2412 40.3132C42.2975 40.3513 42.3069 40.3996 42.2693 40.4579C41.6852 41.3394 41.5508 42.299 41.8664 43.3365C41.884 43.3925 41.9209 43.4157 41.9772 43.4062L43.4394 43.1632C43.504 43.1524 43.5644 43.1644 43.6207 43.1989C43.8095 43.3192 43.9538 43.4848 44.0535 43.6956C44.0829 43.7552 44.1268 43.8005 44.1855 43.8314C44.5574 44.028 44.9116 44.0036 45.2483 43.7582C45.3093 43.7141 45.3767 43.6986 45.4506 43.7117L46.4888 43.8958C46.5159 43.9006 46.5438 43.8988 46.5702 43.8905C46.5965 43.8823 46.6206 43.8678 46.6403 43.8482C46.6601 43.8287 46.675 43.8047 46.6838 43.7781C46.6926 43.7516 46.6951 43.7233 46.6911 43.6956L46.538 42.6432C46.5298 42.5825 46.5427 42.5271 46.5767 42.477C46.9005 42.0125 47.5832 41.4085 47.6888 40.8671C47.7592 40.499 47.9363 40.29 48.2202 40.24C48.273 40.2304 48.307 40.2001 48.3222 40.1488L48.6618 38.9946C48.6865 38.9124 48.6583 38.8605 48.5774 38.8391C47.3949 38.5193 47.0641 36.9362 47.5392 35.9606C47.921 35.1762 47.2542 35.0511 46.6823 35.2119C46.4254 35.2846 46.1286 35.2429 45.792 35.0868C45.7298 35.0582 45.697 35.0088 45.6934 34.9385L45.6776 34.5561C45.6753 34.493 45.6436 34.4549 45.5826 34.4418L44.8101 34.281C44.7146 34.2608 44.6298 34.2053 44.5719 34.1251C44.5141 34.045 44.4874 33.9459 44.4969 33.8468C44.5585 33.2232 44.5796 32.2208 45.3873 32.0761C45.4436 32.0665 45.4917 32.0403 45.5316 31.9974C46.392 31.0665 48.4225 33.0802 49.1703 31.4632C49.1961 31.4072 49.2067 31.3488 49.202 31.2881C49.1785 31.0272 49.2061 30.7717 49.2847 30.5215C49.3046 30.4608 49.3457 30.4251 49.4079 30.4143L49.7228 30.3625C49.8108 30.3482 49.8372 30.2994 49.802 30.216C49.5962 29.7389 49.795 29.353 50.3035 29.2851C50.4337 29.2672 50.4355 29.241 50.3088 29.2065C49.7985 29.0653 49.3252 29.5996 48.9733 29.1046C48.9547 29.0789 48.9427 29.049 48.9382 29.0175C48.9337 28.9859 48.9369 28.9538 48.9475 28.9238C48.9581 28.8938 48.9758 28.8669 48.999 28.8455C49.0222 28.8241 49.0502 28.8087 49.0806 28.8009L50.8789 28.3363C50.9446 28.3196 51.0032 28.3339 51.0548 28.3792L51.3399 28.64C51.3985 28.6936 51.4525 28.6889 51.5018 28.6257C51.6496 28.4381 51.3575 28.3327 51.2343 28.2916C51.1135 28.2511 51.1135 28.2088 51.2343 28.1647L51.5792 28.0415C51.5944 28.0361 51.6083 28.0274 51.6199 28.0159C51.6315 28.0044 51.6404 27.9904 51.6461 27.9749C51.6518 27.9594 51.6541 27.9428 51.6529 27.9262C51.6517 27.9096 51.6469 27.8934 51.639 27.8789L51.0654 26.8514C51.022 26.7728 51.0431 26.7216 51.1287 26.6978L51.4824 26.6013C51.5457 26.5846 51.5774 26.5429 51.5774 26.4762V25.749C51.5774 25.6835 51.6067 25.6364 51.6654 25.6078C52.2296 25.3386 52.6725 25.4464 52.9939 25.9312C53.0326 25.9872 53.083 26.0021 53.1452 25.9759C53.9393 25.6269 54.6531 25.1552 55.2866 24.5608C55.3165 24.5329 55.3373 24.4966 55.3464 24.4564C55.3555 24.4163 55.3525 24.3743 55.3376 24.336C55.3227 24.2977 55.2968 24.2649 55.2632 24.2418C55.2296 24.2188 55.1899 24.2066 55.1493 24.207L54.0443 24.2052C53.9775 24.2052 53.9446 24.1718 53.9458 24.1051L53.9511 23.3154C53.9522 23.2665 53.9745 23.2332 54.0179 23.2153C54.1992 23.1438 54.1763 23.7514 54.1728 23.9104C54.1704 23.9842 54.205 24.0182 54.2766 24.0122L54.3681 24.0051C54.4279 24.0003 54.4537 23.9681 54.4455 23.9086C54.415 23.6727 54.4297 23.4428 54.4895 23.2189C54.5423 23.0223 54.5951 23.0223 54.6479 23.2189C54.7077 23.444 54.7223 23.6739 54.6918 23.9086C54.6836 23.9777 54.7135 24.0122 54.7816 24.0122H54.8977C54.9716 24.0122 55.0086 23.9747 55.0086 23.8997V23.2904C55.0086 23.226 55.0402 23.198 55.1036 23.2064L55.1564 23.2153C55.1998 23.2213 55.2221 23.2463 55.2232 23.2904L55.2373 23.9247C55.2432 24.1474 55.2977 24.1605 55.4009 23.964C55.5007 23.7758 55.5282 23.5715 55.4836 23.3511C55.4731 23.2939 55.4924 23.251 55.5417 23.2225C55.5558 23.2141 55.5704 23.2088 55.5857 23.2064C55.6291 23.2016 55.6602 23.2189 55.679 23.2582L55.7863 23.4833C55.8367 23.5882 55.8708 23.5828 55.8883 23.4672C55.9118 23.3207 55.9839 23.2165 56.1048 23.1546C56.1974 23.1081 56.2344 23.1361 56.2156 23.2385C56.1886 23.3827 56.1235 23.5042 56.0203 23.603C55.9757 23.6459 55.9675 23.6954 55.9957 23.7513C56.2156 24.1712 56.6221 24.4071 56.7769 24.8073C57.3787 26.3547 56.4039 26.2064 55.9904 27.3071C55.9622 27.3798 55.9869 27.4131 56.0643 27.4071C56.4197 27.3786 56.6279 27.5376 56.6889 27.8842C56.6964 27.9263 56.7127 27.9663 56.7366 28.0015C56.7606 28.0366 56.7918 28.0662 56.828 28.088C56.8642 28.1099 56.9047 28.1236 56.9465 28.1282C56.9884 28.1328 57.0308 28.1282 57.0708 28.1147C57.845 27.8503 58.5512 27.6305 59.1893 27.4554C59.5998 27.3422 59.9213 27.456 60.1535 27.7967C60.1646 27.8129 60.1793 27.8263 60.1964 27.8356C60.2136 27.845 60.2326 27.85 60.2519 27.8504C60.2712 27.8507 60.2903 27.8464 60.3074 27.8376C60.3246 27.8289 60.3394 27.8161 60.3506 27.8002L60.5406 27.5376C60.6075 27.4447 60.6667 27.4488 60.7183 27.5501L60.8468 27.8002C60.8534 27.8128 60.8626 27.8237 60.8737 27.8324C60.8849 27.841 60.8977 27.8472 60.9114 27.8504C60.925 27.8536 60.9392 27.8538 60.9529 27.851C60.9667 27.8482 60.9797 27.8425 60.9911 27.8342L61.5823 27.3946C61.6292 27.3589 61.6621 27.313 61.6808 27.2571C61.7407 27.0855 61.8603 26.9664 62.0398 26.8997C62.0973 26.8794 62.1242 26.8384 62.1207 26.7764C62.0961 26.4441 62.2333 26.235 62.5325 26.1492C62.5899 26.1338 62.6386 26.1486 62.6785 26.1939C62.8064 26.3392 62.963 26.4381 63.1483 26.4905C63.2257 26.512 63.2568 26.4834 63.2416 26.4047C63.2111 26.2427 63.1383 26.0992 63.0234 25.9741C62.9882 25.9372 62.9694 25.8931 62.9671 25.8419C62.9336 25.2558 63.6709 25.6704 63.8627 25.7812C63.9087 25.8079 63.9629 25.816 64.0145 25.8037C64.0661 25.7914 64.1112 25.7597 64.1407 25.715L64.6281 24.9699C64.6645 24.914 64.7114 24.8699 64.7689 24.8377L65.4516 24.4428C65.536 24.3952 65.5302 24.3648 65.434 24.3517C64.8862 24.2767 64.5348 24.2511 64.38 24.2749C63.8328 24.3589 63.1764 23.7442 62.8228 23.453C62.7794 23.4172 62.7389 23.4202 62.7014 23.4619L62.4585 23.7299C62.3999 23.7954 62.3401 23.796 62.2791 23.7317C62.0867 23.5244 61.9952 23.2755 62.0046 22.9848C62.0093 22.8776 61.9653 22.8502 61.8726 22.9026C61.5453 23.092 61.2298 23.0736 60.926 22.8472C60.8732 22.8079 60.8491 22.7555 60.8538 22.69C60.8808 22.2481 60.6978 21.9431 60.3048 21.7751C60.2415 21.7489 60.1958 21.7674 60.1676 21.8305L59.8808 22.4809C59.8515 22.5488 59.7999 22.5828 59.7259 22.5828H59.5922C59.4773 22.5828 59.4298 22.6406 59.4497 22.7561C59.5119 23.1027 59.3946 23.3398 59.0978 23.4672C59.0321 23.4958 59.0039 23.5465 59.0133 23.6191C59.0292 23.7478 59.1013 24.2248 58.8849 24.232C58.8321 24.2332 58.8045 24.2076 58.8022 24.1552L58.7687 23.5012C58.7652 23.4202 58.723 23.3809 58.6421 23.3833L58.445 23.3904C58.3582 23.394 58.3142 23.4398 58.313 23.528L58.2989 24.2034C58.296 24.2238 58.286 24.2424 58.2706 24.2559C58.2553 24.2694 58.2357 24.2768 58.2154 24.2768C58.1951 24.2768 58.1755 24.2694 58.1601 24.2559C58.1448 24.2424 58.1347 24.2238 58.1318 24.2034C58.1271 23.995 58.0391 23.8669 57.8679 23.8192C57.7799 23.7942 57.7359 23.8282 57.7359 23.9211V24.1069C57.7359 24.1772 57.7013 24.2076 57.6321 24.198L57.5687 24.1909C57.5171 24.1838 57.4925 24.1534 57.4948 24.0998L57.5247 23.3583C57.5283 23.2808 57.4948 23.2284 57.4244 23.201L56.8209 22.9598C56.7576 22.9348 56.7171 22.8883 56.6995 22.8204L56.5147 22.0986C56.5069 22.068 56.4908 22.0403 56.4682 22.0186C56.4456 21.997 56.4174 21.9822 56.3869 21.9761C56.3564 21.9699 56.3248 21.9726 56.2958 21.9838C56.2667 21.9951 56.2414 22.0144 56.2227 22.0396C56.0807 22.2338 55.8919 22.3285 55.6561 22.3237C55.5916 22.3225 55.5353 22.2999 55.4872 22.2558C55.2291 22.0152 54.9264 21.8758 54.5792 21.8377C54.5229 21.8317 54.4813 21.8031 54.4543 21.7519C54.2185 21.3195 55.1405 20.8264 55.3763 20.5548C55.415 20.5107 55.4402 20.4595 55.452 20.4011C55.5312 19.983 56.2508 19.5077 56.6168 19.3451C56.6708 19.3225 56.6989 19.2814 56.7013 19.2218C56.713 18.9216 56.8573 18.7501 57.1341 18.7072C57.1951 18.6989 57.2426 18.6691 57.2766 18.6179C57.4362 18.3784 57.6596 18.2516 57.947 18.2373C57.9742 18.2358 58.0003 18.2263 58.0221 18.2097C58.0438 18.1932 58.0603 18.1705 58.0694 18.1445C58.0784 18.1185 58.0796 18.0903 58.0729 18.0635C58.0662 18.0368 58.0517 18.0127 58.0315 17.9943C57.6315 17.6357 57.2954 17.675 57.0233 18.1122C56.9928 18.161 56.9494 18.189 56.8931 18.1962C55.9746 18.3105 56.3863 19.4755 55.4555 19.0378C55.4006 19.0112 55.338 19.0054 55.2791 19.0215C55.2201 19.0375 55.1685 19.0743 55.1335 19.1253C54.5863 19.9169 53.9018 21.0533 52.8689 21.1819C52.8068 21.1891 52.751 21.2117 52.7018 21.2498L51.998 21.7841C51.9417 21.827 51.9082 21.8829 51.8977 21.952C51.8695 22.1319 51.7768 22.2695 51.6196 22.3648C51.5657 22.3981 51.5586 22.4392 51.5985 22.4881L51.873 22.8347C51.9129 22.8848 51.9639 22.9092 52.0261 22.908L52.8795 22.8919C52.8993 22.8906 52.9189 22.8968 52.9346 22.9093C52.9502 22.9218 52.9608 22.9397 52.9643 22.9595C52.9677 22.9794 52.9639 22.9999 52.9534 23.0171C52.943 23.0343 52.9267 23.047 52.9076 23.0527C52.5604 23.1694 52.4748 23.447 52.6508 23.8854C52.7305 24.0843 52.666 24.2004 52.4572 24.2338C52.276 24.2642 52.3076 23.4297 52.2724 23.26C52.2619 23.2088 52.2326 23.1742 52.1845 23.1563L51.998 23.0884C51.9252 23.061 51.8713 23.0825 51.8361 23.1528C51.5281 23.7442 50.7117 23.5602 50.8349 22.8008C50.8501 22.7126 50.8185 22.69 50.7399 22.7329C50.3897 22.9294 50.8842 23.7728 49.9833 24.039C49.9199 24.0569 49.8706 24.0938 49.8355 24.1498L49.297 25.0164C49.2642 25.07 49.2225 25.1141 49.1721 25.1486C48.69 25.472 49.0507 26.0903 49.2178 26.4655C49.2381 26.5107 49.2468 26.5603 49.243 26.6098C49.2392 26.6593 49.2231 26.707 49.1962 26.7484C49.1693 26.7898 49.1324 26.8237 49.0891 26.8467C49.0458 26.8697 48.9975 26.8812 48.9486 26.88C48.07 26.8574 47.3204 26.5286 46.6999 25.8937C46.6553 25.8485 46.6442 25.7955 46.6665 25.7347C46.7509 25.5131 47.0729 25.1129 47.0518 24.911C47.0448 24.8514 47.0131 24.8133 46.9568 24.7966L46.7052 24.7234C46.6489 24.7067 46.6131 24.6698 46.5979 24.6126L46.4905 24.2016C46.4706 24.129 46.4237 24.0956 46.3498 24.1016C45.9398 24.1409 45.5896 24.0748 45.1849 24.1587C44.1562 24.372 43.0963 24.4321 42.0054 24.3392C41.9289 24.3326 41.8566 24.3012 41.7989 24.2498C41.7413 24.1983 41.7014 24.1295 41.6852 24.0533L40.8846 20.2349C40.8801 20.2141 40.8686 20.1954 40.8519 20.1821C40.8353 20.1687 40.8145 20.1615 40.7931 20.1617H39.2869C39.246 20.1617 39.2055 20.1533 39.168 20.1369C39.1304 20.1204 39.0965 20.0963 39.0683 20.0661C39.0402 20.0358 39.0183 20 39.0042 19.9608C38.99 19.9217 38.9838 19.88 38.986 19.8383C39.0141 19.2855 39.0335 18.6965 39.0441 18.0711C39.0476 17.8478 39.2306 17.6441 39.2499 17.36C39.2957 16.7048 39.3326 16.0437 39.3608 15.3766C39.3655 15.2932 39.3297 15.2682 39.2534 15.3016L38.5584 15.6107C38.5072 15.6336 38.4494 15.636 38.3963 15.6175C38.3432 15.5989 38.2987 15.5608 38.2716 15.5106L37.281 13.6595C37.2505 13.6023 37.2071 13.5582 37.1508 13.5273C36.2393 13.0252 35.8065 12.3444 35.2276 11.5403C35.1853 11.482 35.1349 11.4736 35.0762 11.5153C34.4375 11.9781 33.7918 12.3873 32.9665 12.3426C31.7923 12.2795 30.6246 12.1449 29.4632 11.9388C29.1594 11.884 28.858 11.8864 28.5588 11.9459C27.3482 12.189 26.1435 12.3623 24.9447 12.4659C24.9026 12.4698 24.8602 12.4628 24.8214 12.4456C24.7827 12.4284 24.7488 12.4016 24.723 12.3676L21.8144 8.58855C21.7734 8.53733 21.7505 8.47896 21.7458 8.41344C21.6825 7.69872 20.9487 7.35744 20.4508 6.95005L20.3082 6.85892L16.1662 3.59086L14.6337 2.39192L14.5017 2.30258C14.1615 1.93688 13.7779 1.62657 13.3509 1.37166L4.61823 3.02981C4.55958 3.04172 4.52614 3.07805 4.51793 3.1388L2.34487 21.1176C2.33901 21.1688 2.36071 21.1998 2.40998 21.2105C3.02817 21.3451 3.64578 21.4821 4.2628 21.6215C4.70797 21.7215 5.32733 21.5875 5.76194 21.8913C5.80557 21.9219 5.85752 21.938 5.91054 21.9372C5.96357 21.9365 6.01505 21.9189 6.05783 21.8871C6.1006 21.8553 6.13254 21.8107 6.1492 21.7596C6.16587 21.7084 6.16643 21.6533 6.15081 21.6018C5.88335 20.7287 5.81121 19.8377 5.93438 18.9288C5.94259 18.8656 5.97368 18.818 6.02764 18.7858C6.45345 18.5297 6.84701 18.2283 7.2083 17.8817C7.7045 17.4064 8.52622 17.6083 9.15438 17.5565C9.21303 17.5517 9.25878 17.5249 9.29163 17.4761C9.6453 16.9508 9.63298 16.4541 10.2154 16.0431C10.2658 16.0073 10.3186 16.0032 10.3738 16.0306L11.2395 16.4648C11.3873 16.5398 11.4013 16.519 11.2817 16.4022C11.0834 16.2105 10.8682 16.0502 10.6359 15.9216C10.5972 15.8998 10.5648 15.8681 10.542 15.8295C10.5192 15.791 10.5068 15.747 10.5061 15.7021C10.5054 15.6571 10.5163 15.6128 10.5379 15.5735C10.5595 15.5343 10.5909 15.5015 10.6289 15.4785C11.0852 15.2021 11.5304 15.2015 11.9644 15.4767C12.0289 15.5184 12.0729 15.5017 12.0964 15.4266C12.5327 13.9847 13.1398 15.6446 13.4671 16.0895C13.8823 16.6524 14.6495 15.8698 14.8606 16.8936C14.8724 16.9484 14.8706 17.0032 14.8554 17.058C14.8425 17.1033 14.8395 17.1521 14.8466 17.2045C14.8536 17.2605 14.8823 17.2998 14.9328 17.3224L15.4079 17.5458C15.463 17.572 15.5205 17.5821 15.5803 17.5762C16.2085 17.5083 16.907 17.4868 17.2818 17.9943C17.5668 18.3802 17.456 18.9127 17.3874 19.3683C17.3792 19.4267 17.3985 19.4731 17.4454 19.5077C17.7991 19.7686 18.9886 20.7459 17.6443 20.662C17.5586 20.6572 17.5334 20.6941 17.5686 20.7727C17.788 21.2719 17.751 21.7454 17.4578 22.1933C17.4202 22.2504 17.4308 22.2969 17.4894 22.3326L18.4748 22.933C18.5205 22.9616 18.5528 23.0009 18.5716 23.0509C18.7229 23.453 19.0202 23.2242 19.2877 23.2207C20.1217 23.2111 20.9118 23.3928 21.6578 23.7656C21.7153 23.793 21.7669 23.7853 21.8127 23.7424C21.93 23.6328 21.9663 23.4845 21.9218 23.2975ZM51.1622 23.1992L51.588 23.0402C51.5941 23.038 51.5998 23.0346 51.6046 23.0302C51.6094 23.0257 51.6134 23.0204 51.6161 23.0144C51.6189 23.0084 51.6205 23.0019 51.6208 22.9953C51.6211 22.9887 51.6201 22.9821 51.6179 22.9759L51.6056 22.9455C51.5699 22.8478 51.5096 22.7639 51.438 22.7123C51.3664 22.6607 51.2893 22.6456 51.2237 22.6703L51.2009 22.6793C51.1355 22.7042 51.087 22.7667 51.0659 22.8531C51.0447 22.9394 51.0528 23.0427 51.0883 23.1403L51.0988 23.1706C51.1035 23.1829 51.1128 23.1928 51.1247 23.1982C51.1366 23.2035 51.15 23.2039 51.1622 23.1992ZM58.0259 23.643C58.0429 23.6293 58.0565 23.6116 58.066 23.5909C58.0755 23.5702 58.0806 23.5469 58.081 23.5224C58.0815 23.4979 58.0773 23.4726 58.0687 23.448C58.0601 23.4234 58.0473 23.4 58.0309 23.379C58.0145 23.358 57.995 23.34 57.9734 23.3258C57.9517 23.3117 57.9284 23.3018 57.9048 23.2967C57.8812 23.2915 57.8578 23.2913 57.8358 23.2959C57.8138 23.3006 57.7937 23.31 57.7767 23.3237C57.7597 23.3374 57.746 23.3551 57.7366 23.3758C57.7271 23.3965 57.722 23.4197 57.7215 23.4442C57.7211 23.4687 57.7252 23.494 57.7338 23.5186C57.7424 23.5432 57.7553 23.5667 57.7717 23.5877C57.788 23.6086 57.8076 23.6267 57.8292 23.6408C57.8508 23.6549 57.8741 23.6648 57.8977 23.67C57.9213 23.6751 57.9448 23.6754 57.9668 23.6707C57.9888 23.6661 58.0089 23.6567 58.0259 23.643Z"/>
    </mask>
    <path d="M13.4829 1L13.6078 1.00715C13.6489 1.09768 13.7081 1.17332 13.7855 1.23407C15.9991 2.99467 18.215 4.75288 20.4332 6.50871L21.8355 7.6201C21.8825 7.65703 21.9118 7.70587 21.9235 7.76662C21.9904 8.13232 22.0643 8.36698 22.1452 8.47062C23.0778 9.66301 24.0004 10.8614 24.913 12.0657C24.9506 12.1145 24.9986 12.1371 25.0573 12.1336C26.2796 12.0573 27.4843 11.8715 28.6714 11.5761C29.2521 11.4314 29.5231 11.6869 30.0615 11.7458C31.1536 11.8661 32.2457 11.9817 33.3378 12.0925C33.4058 12.0984 33.4698 12.0841 33.5296 12.0496L35.0375 11.1741C35.0758 11.1519 35.118 11.1377 35.1618 11.1323C35.2055 11.1269 35.2499 11.1304 35.2923 11.1425C35.3347 11.1546 35.3743 11.1752 35.4088 11.203C35.4433 11.2308 35.472 11.2653 35.4933 11.3045C35.9073 12.0573 36.4604 12.6696 37.1525 13.1413C37.7508 13.5487 38.152 14.5583 38.488 15.1979C38.5209 15.2611 38.5696 15.2777 38.6341 15.248L39.4857 14.8602C39.5001 14.8537 39.5159 14.8509 39.5317 14.8521C39.5474 14.8534 39.5626 14.8586 39.5759 14.8672C39.5892 14.8759 39.6001 14.8879 39.6077 14.9019C39.6153 14.916 39.6193 14.9317 39.6194 14.9478C39.6159 15.6482 39.5925 16.3576 39.549 17.0759C39.5385 17.2391 39.4746 17.628 39.3573 18.2426C39.2622 18.7429 39.2558 19.2534 39.3379 19.7739C39.3485 19.8371 39.3854 19.868 39.4488 19.8668L40.9004 19.8365C40.9488 19.8354 40.9962 19.8515 41.0344 19.8821C41.0726 19.9128 41.0992 19.956 41.1098 20.0044L41.9333 23.8854C41.943 23.9328 41.9671 23.976 42.0021 24.0089C42.0371 24.0419 42.0813 24.063 42.1286 24.0694C43.626 24.2677 44.8576 23.9068 46.3867 23.7371L46.5116 23.7889C46.6782 24.1772 46.9592 24.4327 47.3545 24.5554V24.6751C47.338 25.042 47.2378 25.3702 47.0536 25.6597C47.0207 25.7097 47.0266 25.7549 47.0712 25.7954C47.585 26.2624 48.1803 26.5435 48.8571 26.6388C48.8699 26.6407 48.8829 26.6392 48.8949 26.6346C48.907 26.6299 48.9176 26.6222 48.9259 26.6122C48.9342 26.6021 48.9398 26.5901 48.9423 26.5773C48.9447 26.5645 48.9439 26.5512 48.9398 26.5388C48.7656 26.0045 48.3891 25.5114 48.8571 24.9503L49.0261 24.8681L49.7299 23.8586C49.7627 23.8109 49.8073 23.7787 49.8636 23.7621C50.1792 23.6703 50.344 23.4714 50.358 23.1653C50.3968 22.2951 50.7539 22.4148 51.3839 22.1218C51.4355 22.098 51.4724 22.0598 51.4947 22.0074C51.7833 21.2981 52.7405 20.846 53.4109 20.7138C53.4695 20.7031 53.5176 20.6745 53.5552 20.628C54.0279 20.0491 54.4813 19.463 54.9153 18.8698C55.137 18.5684 55.4138 18.5309 55.7458 18.7572C55.7916 18.7882 55.8285 18.7799 55.8567 18.7322L56.2367 18.0675C56.2696 18.0104 56.3183 17.9841 56.3828 17.9889C56.7171 18.0151 56.8895 17.8466 56.9001 17.4832C56.9153 17.4832 56.93 17.4832 56.9441 17.4832C57.5095 17.3784 58.0098 17.4969 58.445 17.8388C58.4907 17.8746 58.5036 17.9198 58.4837 17.9746C58.3453 18.3356 58.089 18.541 57.7148 18.5911C57.6491 18.6006 57.6068 18.6369 57.5881 18.7001C57.513 18.9478 57.3458 19.0783 57.0866 19.0914C57.0209 19.0949 56.9881 19.1301 56.9881 19.1968V19.4058C56.9881 19.4606 56.9658 19.5023 56.9212 19.5309L55.9693 20.1635C55.9188 20.1968 55.8848 20.2427 55.8672 20.301C55.703 20.8287 55.3663 21.1956 54.8572 21.4017C54.8405 21.4079 54.8263 21.4196 54.8169 21.435C54.8075 21.4504 54.8035 21.4685 54.8055 21.4865C54.8076 21.5045 54.8155 21.5212 54.8281 21.5341C54.8407 21.5469 54.8571 21.555 54.8748 21.5572C55.1728 21.5988 55.4314 21.7221 55.6508 21.927C55.6895 21.9628 55.7317 21.9687 55.7775 21.9449L56.2755 21.6822C56.3229 21.6573 56.3753 21.6436 56.4286 21.642C56.482 21.6403 56.535 21.6509 56.5837 21.6729C56.6324 21.6949 56.6755 21.7277 56.7099 21.7689C56.7442 21.8101 56.769 21.8587 56.7822 21.9109L56.9494 22.5774C56.9658 22.6441 57.0045 22.6918 57.0655 22.7204L57.5934 22.9741C57.6438 22.9991 57.6972 23.008 57.7535 23.0009C57.9247 22.9818 58.0643 23.0444 58.1723 23.1885C58.2215 23.254 58.2696 23.2534 58.3165 23.1867C58.4995 22.9354 58.7295 22.9181 59.0063 23.1349C59.0919 23.2016 59.1447 23.182 59.1646 23.0759C59.2227 22.7811 58.9746 22.1397 59.2227 21.9949C59.2908 21.9556 59.3435 21.9711 59.3811 22.0414L59.4444 22.1629C59.4843 22.2379 59.5347 22.2469 59.5957 22.1897C59.8386 21.9645 59.8562 21.7144 59.6485 21.4392C59.6051 21.3821 59.6092 21.3296 59.6608 21.282L59.9107 21.0515C59.9776 20.9884 60.0368 20.9955 60.0884 21.0729L60.194 21.2302C60.2304 21.2838 60.2773 21.3231 60.3348 21.3481C60.6409 21.4851 60.8937 21.6912 61.0931 21.9663C61.1271 22.0128 61.1465 22.0646 61.1512 22.1218L61.1899 22.5167C61.1981 22.6096 61.2474 22.6495 61.3377 22.6364C61.6192 22.5953 61.9571 22.4452 62.2316 22.6685C62.282 22.7102 62.3078 22.7632 62.309 22.8276L62.3143 23.1492C62.3178 23.285 62.3606 23.2999 62.4427 23.1939C62.763 22.7758 63.604 23.5655 63.97 23.8889C64.0134 23.9271 64.0639 23.9461 64.1213 23.9461L65.7771 23.93C65.8144 23.9298 65.8512 23.9392 65.884 23.9573C65.9168 23.9754 65.9446 24.0016 65.9648 24.0335C65.985 24.0654 65.9969 24.1019 65.9995 24.1398C66.002 24.1776 65.9951 24.2155 65.9794 24.2499C65.6873 24.886 64.892 24.9449 64.7425 25.4488C64.5606 26.0659 64.1864 26.269 63.6199 26.0581C63.5706 26.039 63.5454 26.0563 63.5442 26.1099L63.5336 26.612C63.5325 26.6534 63.5216 26.6939 63.5018 26.7301C63.482 26.7663 63.4539 26.7971 63.4199 26.8199C63.3859 26.8427 63.347 26.8568 63.3064 26.861C63.2659 26.8653 63.2249 26.8596 63.187 26.8443L62.543 26.5852C62.4503 26.5483 62.4157 26.5793 62.4392 26.6781C62.5037 26.9473 62.4069 27.1278 62.1489 27.2195C62.0386 27.2576 62.0245 27.3184 62.1066 27.4018L62.2017 27.4983C62.2486 27.5447 62.2527 27.5948 62.214 27.6484C62.099 27.8139 61.9465 27.8527 61.7565 27.7645C61.6861 27.7323 61.6228 27.7431 61.5664 27.7967L60.9893 28.3452C60.9459 28.3869 60.8961 28.3982 60.8398 28.3792L59.9758 28.0808C59.9218 28.0617 59.8808 28.0266 59.8526 27.9753C59.6169 27.5304 58.7019 27.9575 58.3007 28.0325C57.7857 28.3017 57.2819 28.4268 56.7892 28.4078C56.7118 28.4047 56.6377 28.375 56.5792 28.3237C56.5207 28.2724 56.4812 28.2025 56.4672 28.1254C56.3247 27.3285 55.9235 27.9146 55.5734 27.4965L55.6614 27.3178C55.8655 26.7973 56.1804 26.3547 56.6062 25.9902C56.652 25.9497 56.6749 25.8985 56.6749 25.8365C56.6655 25.1183 56.3892 24.5512 55.8461 24.1355C55.7628 24.0736 55.7048 24.092 55.6719 24.1909L55.4696 24.7788C55.452 24.8312 55.4232 24.877 55.3834 24.9163C54.8115 25.4774 54.1798 25.7865 53.5094 26.1921C52.5892 26.7514 52.7264 25.4024 51.954 25.9277C51.9082 25.9586 51.8853 26.0015 51.8853 26.0563V26.6603C51.8853 26.7258 51.8566 26.7728 51.7991 26.8014L51.5757 26.9176C51.5018 26.9557 51.4924 27.0057 51.5475 27.0677C51.9006 27.4727 52.0202 27.9325 51.9065 28.4471C51.7903 28.9795 51.3487 29.101 50.9669 28.7437C50.9199 28.6996 50.8648 28.677 50.8014 28.6758C50.663 28.6734 50.5399 28.7115 50.4319 28.7901C50.3498 28.8497 50.3586 28.8884 50.4583 28.9063C50.6894 28.9468 50.8149 29.0778 50.8349 29.2994C50.8407 29.3637 50.8138 29.4078 50.7539 29.4316L50.1416 29.6675C50.0959 29.6853 50.0888 29.7133 50.1205 29.7514L50.3668 30.0498C50.4865 30.1952 50.4736 30.3268 50.3281 30.4447C50.1158 30.6174 49.8765 30.724 49.6102 30.7645C49.5657 30.7717 49.5375 30.7967 49.5258 30.8396C49.4659 31.0528 49.4536 31.2654 49.4888 31.4775C49.4994 31.537 49.4894 31.5924 49.4589 31.6437C49.1563 32.1559 48.6912 32.3905 48.0636 32.3477C47.348 32.2988 46.6929 32.1827 46.0981 31.9992C46.0395 31.9825 45.9937 31.9992 45.9609 32.0493C45.8119 32.2756 45.6055 32.4102 45.3415 32.4531C45.2829 32.4638 45.2354 32.4936 45.199 32.5424C44.9233 32.9224 44.7961 33.3566 44.8172 33.845C44.8195 33.9117 44.8535 33.9534 44.9192 33.9701C45.4102 34.0916 46.0999 34.0094 45.9556 34.7777C45.9427 34.8468 45.9697 34.8873 46.0366 34.8992C46.7421 35.0243 47.7627 34.4882 47.9774 35.5871C48.046 35.9409 47.8507 36.175 47.6395 36.4269C47.5985 36.477 47.5774 36.5341 47.5762 36.5985C47.5586 37.5097 47.9322 38.1732 48.697 38.589C48.769 38.6284 48.8283 38.688 48.8679 38.7605C48.9076 38.8331 48.9258 38.9155 48.9205 38.9981C48.8888 39.4984 48.7287 40.4276 48.141 40.6098C48.0835 40.6265 48.0454 40.664 48.0266 40.7224C47.7609 41.5443 47.4636 41.8177 46.9691 42.4752C46.9351 42.5205 46.9199 42.5717 46.9234 42.6289L46.992 43.869C46.9955 43.9297 46.9838 43.9881 46.9568 44.0441L46.7017 44.5604C46.6594 44.645 46.6841 44.6962 46.7756 44.7141C46.9668 44.7522 47.1011 44.8475 47.1785 45C46.8618 44.9273 46.5257 44.6343 46.1703 44.1209C46.1583 44.1036 46.1421 44.0898 46.1231 44.0809C46.1042 44.072 46.0833 44.0684 46.0626 44.0704C46.0419 44.0724 46.022 44.0799 46.0051 44.0923C45.9881 44.1046 45.9747 44.1212 45.9662 44.1405C45.8307 44.4515 45.5157 44.3871 45.4559 44.0548C45.4465 44.0048 45.4248 43.9982 45.3908 44.0351C44.6395 44.8499 43.9497 44.2067 43.5556 43.4955C43.5227 43.4371 43.4752 43.4181 43.413 43.4383C42.5403 43.7242 41.7907 43.5974 40.8934 43.7206C40.8359 43.729 40.7796 43.7254 40.7244 43.7099L40.2282 43.5706L40.3162 43.5259L41.1379 43.567C41.1843 43.5693 41.2306 43.5615 41.2736 43.5438C41.3167 43.5262 41.3555 43.4993 41.3873 43.465C41.4191 43.4307 41.4431 43.3897 41.4578 43.345C41.4725 43.3003 41.4774 43.2529 41.4723 43.2061C41.372 42.2894 41.2734 41.3496 41.8699 40.5348C41.9133 40.4752 41.901 40.4323 41.833 40.4061C41.3297 40.2149 40.7825 40.4365 40.4499 39.8361C40.4218 39.7837 40.3784 39.7551 40.3197 39.7504C40.0957 39.7313 39.9203 39.6307 39.7936 39.4484C39.7549 39.3924 39.7021 39.3567 39.6353 39.3412L38.9244 39.184C38.8611 39.1697 38.803 39.1816 38.7502 39.2197C37.7473 39.9469 36.1689 37.9368 35.3015 37.4365C34.7067 37.0916 34.0487 36.8718 33.5806 36.359C33.3683 36.1256 33.1636 35.8837 32.9665 35.6336C32.929 35.5859 32.8809 35.5687 32.8222 35.5818C31.4515 35.8694 29.8327 33.4805 28.8263 32.7586C27.5999 31.8777 26.5177 31.197 25.7154 30.0838C25.679 30.0326 25.6585 29.9754 25.6538 29.9122C25.6116 29.2869 25.5013 28.674 25.323 28.0736C25.3054 28.0129 25.2684 27.9682 25.2121 27.9396L24.8462 27.7484C24.7922 27.7198 24.7535 27.6775 24.73 27.6216C24.3945 26.8199 24.1488 25.992 23.9928 25.1379C23.8362 24.2874 23.0725 23.7192 22.3159 23.4297C22.2408 23.4023 22.2021 23.4285 22.1998 23.5083C22.1822 23.9729 21.8391 24.3035 21.4027 24.0551C20.5769 23.5858 19.7129 23.4506 18.8109 23.6495C18.7523 23.662 18.6917 23.6584 18.6354 23.6393C18.579 23.6201 18.529 23.586 18.4906 23.5405C18.1563 23.1438 17.7463 22.8574 17.2607 22.6811C17.2225 22.6671 17.1874 22.6456 17.1576 22.6177C17.1277 22.5899 17.1036 22.5562 17.0867 22.5188C17.0698 22.4813 17.0605 22.4408 17.0593 22.3996C17.058 22.3585 17.0649 22.3175 17.0794 22.279L17.3645 21.5214C17.3868 21.4631 17.3891 21.4041 17.3715 21.3445C17.2765 21.0086 16.9316 20.4315 17.5053 20.2778C17.5616 20.2623 17.595 20.2248 17.6056 20.1652C17.6372 19.9741 16.9475 19.7203 16.805 19.6042C16.7416 19.5518 16.7434 19.5023 16.8102 19.4559C16.9733 19.3439 17.0624 19.1813 17.0777 18.9681C17.1639 17.7245 16.3088 17.8299 15.4747 17.9371C15.4137 17.9454 15.3557 17.9371 15.3005 17.9121L14.5105 17.5476C14.46 17.5237 14.4378 17.4844 14.4436 17.4296L14.5052 16.8078C14.5134 16.7197 14.4741 16.6708 14.3873 16.6613L13.4389 16.5648C13.3767 16.5589 13.3286 16.5285 13.2946 16.4737L12.5785 15.3141C12.5257 15.2295 12.4934 15.2372 12.4817 15.3373C12.3621 16.2897 11.5967 15.5624 11.1005 15.6714C11.0277 15.6881 11.0248 15.7131 11.0917 15.7465C11.6107 16.0038 11.7638 16.706 12.0207 17.2134C12.0571 17.2849 12.0424 17.3439 11.9767 17.3903C11.7949 17.5202 11.5861 17.5416 11.3503 17.4547C11.2928 17.4344 11.2682 17.3933 11.2764 17.3314L11.3204 17.0348C11.331 16.9633 11.3046 16.9115 11.2412 16.8793L10.4072 16.4612C10.3509 16.4326 10.3069 16.4457 10.2752 16.5005L9.57843 17.7066C9.54441 17.765 9.49515 17.8031 9.43063 17.821C8.94851 17.9556 8.46228 17.9746 7.97195 17.8781C7.91096 17.8662 7.85348 17.8757 7.79952 17.9067C7.26109 18.2141 6.85463 18.8251 6.29509 18.9824C6.23527 18.9991 6.20242 19.0384 6.19656 19.1003C6.10975 19.958 6.22471 20.7835 6.54143 21.5768C6.56489 21.6364 6.56078 21.6936 6.52911 21.7483C6.28277 22.1843 5.87104 22.4934 5.39947 22.0914C5.35255 22.0509 5.29859 22.0289 5.23759 22.0253C4.11382 21.9562 3.03462 21.7049 2 21.2713L4.27687 2.92081C4.28237 2.87576 4.30168 2.83367 4.33204 2.8006C4.3624 2.76752 4.40223 2.74518 4.44579 2.73677L13.4829 1ZM21.9218 23.2975L21.9288 23.1706C22.5218 23.0688 22.93 23.2564 23.3804 23.6995C23.6901 24.0051 24.0561 24.2534 24.1898 24.6876C24.3799 25.3059 24.452 25.9205 24.679 26.528C24.7846 26.808 24.8778 27.0951 24.9588 27.3893C24.9764 27.45 25.0145 27.4923 25.0731 27.5161C25.8368 27.8217 25.879 28.8562 25.916 29.6746C25.9183 29.7342 25.9383 29.7866 25.9758 29.8318C26.6421 30.6359 27.1424 31.1517 27.4767 31.3792C28.8245 32.2976 30.0586 33.3512 31.1788 34.5401C31.3923 34.7676 31.7595 35.0183 32.2803 35.2923C32.3319 35.3197 32.387 35.3298 32.4457 35.3227L32.9542 35.2619C33.0199 35.2548 33.0733 35.2762 33.1143 35.3263C33.5349 35.8337 33.936 36.3626 34.566 36.6431C35.3437 36.9921 36.0352 37.4656 36.6405 38.0636C37.1279 38.5443 37.6153 38.7819 38.1625 39.1339C38.2141 39.1673 38.264 39.1649 38.3121 39.1268C38.9068 38.6569 39.1813 39.0017 39.7989 39.0392C39.8634 39.044 39.915 39.072 39.9538 39.1232C40.0957 39.3055 40.281 39.4216 40.5098 39.4716C40.5708 39.4859 40.6218 39.5175 40.6629 39.5663L40.9532 39.9219C40.986 39.9636 41.0288 39.9833 41.0816 39.9809C41.5086 39.963 41.8951 40.0738 42.2412 40.3132C42.2975 40.3513 42.3069 40.3996 42.2693 40.4579C41.6852 41.3394 41.5508 42.299 41.8664 43.3365C41.884 43.3925 41.9209 43.4157 41.9772 43.4062L43.4394 43.1632C43.504 43.1524 43.5644 43.1644 43.6207 43.1989C43.8095 43.3192 43.9538 43.4848 44.0535 43.6956C44.0829 43.7552 44.1268 43.8005 44.1855 43.8314C44.5574 44.028 44.9116 44.0036 45.2483 43.7582C45.3093 43.7141 45.3767 43.6986 45.4506 43.7117L46.4888 43.8958C46.5159 43.9006 46.5438 43.8988 46.5702 43.8905C46.5965 43.8823 46.6206 43.8678 46.6403 43.8482C46.6601 43.8287 46.675 43.8047 46.6838 43.7781C46.6926 43.7516 46.6951 43.7233 46.6911 43.6956L46.538 42.6432C46.5298 42.5825 46.5427 42.5271 46.5767 42.477C46.9005 42.0125 47.5832 41.4085 47.6888 40.8671C47.7592 40.499 47.9363 40.29 48.2202 40.24C48.273 40.2304 48.307 40.2001 48.3222 40.1488L48.6618 38.9946C48.6865 38.9124 48.6583 38.8605 48.5774 38.8391C47.3949 38.5193 47.0641 36.9362 47.5392 35.9606C47.921 35.1762 47.2542 35.0511 46.6823 35.2119C46.4254 35.2846 46.1286 35.2429 45.792 35.0868C45.7298 35.0582 45.697 35.0088 45.6934 34.9385L45.6776 34.5561C45.6753 34.493 45.6436 34.4549 45.5826 34.4418L44.8101 34.281C44.7146 34.2608 44.6298 34.2053 44.5719 34.1251C44.5141 34.045 44.4874 33.9459 44.4969 33.8468C44.5585 33.2232 44.5796 32.2208 45.3873 32.0761C45.4436 32.0665 45.4917 32.0403 45.5316 31.9974C46.392 31.0665 48.4225 33.0802 49.1703 31.4632C49.1961 31.4072 49.2067 31.3488 49.202 31.2881C49.1785 31.0272 49.2061 30.7717 49.2847 30.5215C49.3046 30.4608 49.3457 30.4251 49.4079 30.4143L49.7228 30.3625C49.8108 30.3482 49.8372 30.2994 49.802 30.216C49.5962 29.7389 49.795 29.353 50.3035 29.2851C50.4337 29.2672 50.4355 29.241 50.3088 29.2065C49.7985 29.0653 49.3252 29.5996 48.9733 29.1046C48.9547 29.0789 48.9427 29.049 48.9382 29.0175C48.9337 28.9859 48.9369 28.9538 48.9475 28.9238C48.9581 28.8938 48.9758 28.8669 48.999 28.8455C49.0222 28.8241 49.0502 28.8087 49.0806 28.8009L50.8789 28.3363C50.9446 28.3196 51.0032 28.3339 51.0548 28.3792L51.3399 28.64C51.3985 28.6936 51.4525 28.6889 51.5018 28.6257C51.6496 28.4381 51.3575 28.3327 51.2343 28.2916C51.1135 28.2511 51.1135 28.2088 51.2343 28.1647L51.5792 28.0415C51.5944 28.0361 51.6083 28.0274 51.6199 28.0159C51.6315 28.0044 51.6404 27.9904 51.6461 27.9749C51.6518 27.9594 51.6541 27.9428 51.6529 27.9262C51.6517 27.9096 51.6469 27.8934 51.639 27.8789L51.0654 26.8514C51.022 26.7728 51.0431 26.7216 51.1287 26.6978L51.4824 26.6013C51.5457 26.5846 51.5774 26.5429 51.5774 26.4762V25.749C51.5774 25.6835 51.6067 25.6364 51.6654 25.6078C52.2296 25.3386 52.6725 25.4464 52.9939 25.9312C53.0326 25.9872 53.083 26.0021 53.1452 25.9759C53.9393 25.6269 54.6531 25.1552 55.2866 24.5608C55.3165 24.5329 55.3373 24.4966 55.3464 24.4564C55.3555 24.4163 55.3525 24.3743 55.3376 24.336C55.3227 24.2977 55.2968 24.2649 55.2632 24.2418C55.2296 24.2188 55.1899 24.2066 55.1493 24.207L54.0443 24.2052C53.9775 24.2052 53.9446 24.1718 53.9458 24.1051L53.9511 23.3154C53.9522 23.2665 53.9745 23.2332 54.0179 23.2153C54.1992 23.1438 54.1763 23.7514 54.1728 23.9104C54.1704 23.9842 54.205 24.0182 54.2766 24.0122L54.3681 24.0051C54.4279 24.0003 54.4537 23.9681 54.4455 23.9086C54.415 23.6727 54.4297 23.4428 54.4895 23.2189C54.5423 23.0223 54.5951 23.0223 54.6479 23.2189C54.7077 23.444 54.7223 23.6739 54.6918 23.9086C54.6836 23.9777 54.7135 24.0122 54.7816 24.0122H54.8977C54.9716 24.0122 55.0086 23.9747 55.0086 23.8997V23.2904C55.0086 23.226 55.0402 23.198 55.1036 23.2064L55.1564 23.2153C55.1998 23.2213 55.2221 23.2463 55.2232 23.2904L55.2373 23.9247C55.2432 24.1474 55.2977 24.1605 55.4009 23.964C55.5007 23.7758 55.5282 23.5715 55.4836 23.3511C55.4731 23.2939 55.4924 23.251 55.5417 23.2225C55.5558 23.2141 55.5704 23.2088 55.5857 23.2064C55.6291 23.2016 55.6602 23.2189 55.679 23.2582L55.7863 23.4833C55.8367 23.5882 55.8708 23.5828 55.8883 23.4672C55.9118 23.3207 55.9839 23.2165 56.1048 23.1546C56.1974 23.1081 56.2344 23.1361 56.2156 23.2385C56.1886 23.3827 56.1235 23.5042 56.0203 23.603C55.9757 23.6459 55.9675 23.6954 55.9957 23.7513C56.2156 24.1712 56.6221 24.4071 56.7769 24.8073C57.3787 26.3547 56.4039 26.2064 55.9904 27.3071C55.9622 27.3798 55.9869 27.4131 56.0643 27.4071C56.4197 27.3786 56.6279 27.5376 56.6889 27.8842C56.6964 27.9263 56.7127 27.9663 56.7366 28.0015C56.7606 28.0366 56.7918 28.0662 56.828 28.088C56.8642 28.1099 56.9047 28.1236 56.9465 28.1282C56.9884 28.1328 57.0308 28.1282 57.0708 28.1147C57.845 27.8503 58.5512 27.6305 59.1893 27.4554C59.5998 27.3422 59.9213 27.456 60.1535 27.7967C60.1646 27.8129 60.1793 27.8263 60.1964 27.8356C60.2136 27.845 60.2326 27.85 60.2519 27.8504C60.2712 27.8507 60.2903 27.8464 60.3074 27.8376C60.3246 27.8289 60.3394 27.8161 60.3506 27.8002L60.5406 27.5376C60.6075 27.4447 60.6667 27.4488 60.7183 27.5501L60.8468 27.8002C60.8534 27.8128 60.8626 27.8237 60.8737 27.8324C60.8849 27.841 60.8977 27.8472 60.9114 27.8504C60.925 27.8536 60.9392 27.8538 60.9529 27.851C60.9667 27.8482 60.9797 27.8425 60.9911 27.8342L61.5823 27.3946C61.6292 27.3589 61.6621 27.313 61.6808 27.2571C61.7407 27.0855 61.8603 26.9664 62.0398 26.8997C62.0973 26.8794 62.1242 26.8384 62.1207 26.7764C62.0961 26.4441 62.2333 26.235 62.5325 26.1492C62.5899 26.1338 62.6386 26.1486 62.6785 26.1939C62.8064 26.3392 62.963 26.4381 63.1483 26.4905C63.2257 26.512 63.2568 26.4834 63.2416 26.4047C63.2111 26.2427 63.1383 26.0992 63.0234 25.9741C62.9882 25.9372 62.9694 25.8931 62.9671 25.8419C62.9336 25.2558 63.6709 25.6704 63.8627 25.7812C63.9087 25.8079 63.9629 25.816 64.0145 25.8037C64.0661 25.7914 64.1112 25.7597 64.1407 25.715L64.6281 24.9699C64.6645 24.914 64.7114 24.8699 64.7689 24.8377L65.4516 24.4428C65.536 24.3952 65.5302 24.3648 65.434 24.3517C64.8862 24.2767 64.5348 24.2511 64.38 24.2749C63.8328 24.3589 63.1764 23.7442 62.8228 23.453C62.7794 23.4172 62.7389 23.4202 62.7014 23.4619L62.4585 23.7299C62.3999 23.7954 62.3401 23.796 62.2791 23.7317C62.0867 23.5244 61.9952 23.2755 62.0046 22.9848C62.0093 22.8776 61.9653 22.8502 61.8726 22.9026C61.5453 23.092 61.2298 23.0736 60.926 22.8472C60.8732 22.8079 60.8491 22.7555 60.8538 22.69C60.8808 22.2481 60.6978 21.9431 60.3048 21.7751C60.2415 21.7489 60.1958 21.7674 60.1676 21.8305L59.8808 22.4809C59.8515 22.5488 59.7999 22.5828 59.7259 22.5828H59.5922C59.4773 22.5828 59.4298 22.6406 59.4497 22.7561C59.5119 23.1027 59.3946 23.3398 59.0978 23.4672C59.0321 23.4958 59.0039 23.5465 59.0133 23.6191C59.0292 23.7478 59.1013 24.2248 58.8849 24.232C58.8321 24.2332 58.8045 24.2076 58.8022 24.1552L58.7687 23.5012C58.7652 23.4202 58.723 23.3809 58.6421 23.3833L58.445 23.3904C58.3582 23.394 58.3142 23.4398 58.313 23.528L58.2989 24.2034C58.296 24.2238 58.286 24.2424 58.2706 24.2559C58.2553 24.2694 58.2357 24.2768 58.2154 24.2768C58.1951 24.2768 58.1755 24.2694 58.1601 24.2559C58.1448 24.2424 58.1347 24.2238 58.1318 24.2034C58.1271 23.995 58.0391 23.8669 57.8679 23.8192C57.7799 23.7942 57.7359 23.8282 57.7359 23.9211V24.1069C57.7359 24.1772 57.7013 24.2076 57.6321 24.198L57.5687 24.1909C57.5171 24.1838 57.4925 24.1534 57.4948 24.0998L57.5247 23.3583C57.5283 23.2808 57.4948 23.2284 57.4244 23.201L56.8209 22.9598C56.7576 22.9348 56.7171 22.8883 56.6995 22.8204L56.5147 22.0986C56.5069 22.068 56.4908 22.0403 56.4682 22.0186C56.4456 21.997 56.4174 21.9822 56.3869 21.9761C56.3564 21.9699 56.3248 21.9726 56.2958 21.9838C56.2667 21.9951 56.2414 22.0144 56.2227 22.0396C56.0807 22.2338 55.8919 22.3285 55.6561 22.3237C55.5916 22.3225 55.5353 22.2999 55.4872 22.2558C55.2291 22.0152 54.9264 21.8758 54.5792 21.8377C54.5229 21.8317 54.4813 21.8031 54.4543 21.7519C54.2185 21.3195 55.1405 20.8264 55.3763 20.5548C55.415 20.5107 55.4402 20.4595 55.452 20.4011C55.5312 19.983 56.2508 19.5077 56.6168 19.3451C56.6708 19.3225 56.6989 19.2814 56.7013 19.2218C56.713 18.9216 56.8573 18.7501 57.1341 18.7072C57.1951 18.6989 57.2426 18.6691 57.2766 18.6179C57.4362 18.3784 57.6596 18.2516 57.947 18.2373C57.9742 18.2358 58.0003 18.2263 58.0221 18.2097C58.0438 18.1932 58.0603 18.1705 58.0694 18.1445C58.0784 18.1185 58.0796 18.0903 58.0729 18.0635C58.0662 18.0368 58.0517 18.0127 58.0315 17.9943C57.6315 17.6357 57.2954 17.675 57.0233 18.1122C56.9928 18.161 56.9494 18.189 56.8931 18.1962C55.9746 18.3105 56.3863 19.4755 55.4555 19.0378C55.4006 19.0112 55.338 19.0054 55.2791 19.0215C55.2201 19.0375 55.1685 19.0743 55.1335 19.1253C54.5863 19.9169 53.9018 21.0533 52.8689 21.1819C52.8068 21.1891 52.751 21.2117 52.7018 21.2498L51.998 21.7841C51.9417 21.827 51.9082 21.8829 51.8977 21.952C51.8695 22.1319 51.7768 22.2695 51.6196 22.3648C51.5657 22.3981 51.5586 22.4392 51.5985 22.4881L51.873 22.8347C51.9129 22.8848 51.9639 22.9092 52.0261 22.908L52.8795 22.8919C52.8993 22.8906 52.9189 22.8968 52.9346 22.9093C52.9502 22.9218 52.9608 22.9397 52.9643 22.9595C52.9677 22.9794 52.9639 22.9999 52.9534 23.0171C52.943 23.0343 52.9267 23.047 52.9076 23.0527C52.5604 23.1694 52.4748 23.447 52.6508 23.8854C52.7305 24.0843 52.666 24.2004 52.4572 24.2338C52.276 24.2642 52.3076 23.4297 52.2724 23.26C52.2619 23.2088 52.2326 23.1742 52.1845 23.1563L51.998 23.0884C51.9252 23.061 51.8713 23.0825 51.8361 23.1528C51.5281 23.7442 50.7117 23.5602 50.8349 22.8008C50.8501 22.7126 50.8185 22.69 50.7399 22.7329C50.3897 22.9294 50.8842 23.7728 49.9833 24.039C49.9199 24.0569 49.8706 24.0938 49.8355 24.1498L49.297 25.0164C49.2642 25.07 49.2225 25.1141 49.1721 25.1486C48.69 25.472 49.0507 26.0903 49.2178 26.4655C49.2381 26.5107 49.2468 26.5603 49.243 26.6098C49.2392 26.6593 49.2231 26.707 49.1962 26.7484C49.1693 26.7898 49.1324 26.8237 49.0891 26.8467C49.0458 26.8697 48.9975 26.8812 48.9486 26.88C48.07 26.8574 47.3204 26.5286 46.6999 25.8937C46.6553 25.8485 46.6442 25.7955 46.6665 25.7347C46.7509 25.5131 47.0729 25.1129 47.0518 24.911C47.0448 24.8514 47.0131 24.8133 46.9568 24.7966L46.7052 24.7234C46.6489 24.7067 46.6131 24.6698 46.5979 24.6126L46.4905 24.2016C46.4706 24.129 46.4237 24.0956 46.3498 24.1016C45.9398 24.1409 45.5896 24.0748 45.1849 24.1587C44.1562 24.372 43.0963 24.4321 42.0054 24.3392C41.9289 24.3326 41.8566 24.3012 41.7989 24.2498C41.7413 24.1983 41.7014 24.1295 41.6852 24.0533L40.8846 20.2349C40.8801 20.2141 40.8686 20.1954 40.8519 20.1821C40.8353 20.1687 40.8145 20.1615 40.7931 20.1617H39.2869C39.246 20.1617 39.2055 20.1533 39.168 20.1369C39.1304 20.1204 39.0965 20.0963 39.0683 20.0661C39.0402 20.0358 39.0183 20 39.0042 19.9608C38.99 19.9217 38.9838 19.88 38.986 19.8383C39.0141 19.2855 39.0335 18.6965 39.0441 18.0711C39.0476 17.8478 39.2306 17.6441 39.2499 17.36C39.2957 16.7048 39.3326 16.0437 39.3608 15.3766C39.3655 15.2932 39.3297 15.2682 39.2534 15.3016L38.5584 15.6107C38.5072 15.6336 38.4494 15.636 38.3963 15.6175C38.3432 15.5989 38.2987 15.5608 38.2716 15.5106L37.281 13.6595C37.2505 13.6023 37.2071 13.5582 37.1508 13.5273C36.2393 13.0252 35.8065 12.3444 35.2276 11.5403C35.1853 11.482 35.1349 11.4736 35.0762 11.5153C34.4375 11.9781 33.7918 12.3873 32.9665 12.3426C31.7923 12.2795 30.6246 12.1449 29.4632 11.9388C29.1594 11.884 28.858 11.8864 28.5588 11.9459C27.3482 12.189 26.1435 12.3623 24.9447 12.4659C24.9026 12.4698 24.8602 12.4628 24.8214 12.4456C24.7827 12.4284 24.7488 12.4016 24.723 12.3676L21.8144 8.58855C21.7734 8.53733 21.7505 8.47896 21.7458 8.41344C21.6825 7.69872 20.9487 7.35744 20.4508 6.95005L20.3082 6.85892L16.1662 3.59086L14.6337 2.39192L14.5017 2.30258C14.1615 1.93688 13.7779 1.62657 13.3509 1.37166L4.61823 3.02981C4.55958 3.04172 4.52614 3.07805 4.51793 3.1388L2.34487 21.1176C2.33901 21.1688 2.36071 21.1998 2.40998 21.2105C3.02817 21.3451 3.64578 21.4821 4.2628 21.6215C4.70797 21.7215 5.32733 21.5875 5.76194 21.8913C5.80557 21.9219 5.85752 21.938 5.91054 21.9372C5.96357 21.9365 6.01505 21.9189 6.05783 21.8871C6.1006 21.8553 6.13254 21.8107 6.1492 21.7596C6.16587 21.7084 6.16643 21.6533 6.15081 21.6018C5.88335 20.7287 5.81121 19.8377 5.93438 18.9288C5.94259 18.8656 5.97368 18.818 6.02764 18.7858C6.45345 18.5297 6.84701 18.2283 7.2083 17.8817C7.7045 17.4064 8.52622 17.6083 9.15438 17.5565C9.21303 17.5517 9.25878 17.5249 9.29163 17.4761C9.6453 16.9508 9.63298 16.4541 10.2154 16.0431C10.2658 16.0073 10.3186 16.0032 10.3738 16.0306L11.2395 16.4648C11.3873 16.5398 11.4013 16.519 11.2817 16.4022C11.0834 16.2105 10.8682 16.0502 10.6359 15.9216C10.5972 15.8998 10.5648 15.8681 10.542 15.8295C10.5192 15.791 10.5068 15.747 10.5061 15.7021C10.5054 15.6571 10.5163 15.6128 10.5379 15.5735C10.5595 15.5343 10.5909 15.5015 10.6289 15.4785C11.0852 15.2021 11.5304 15.2015 11.9644 15.4767C12.0289 15.5184 12.0729 15.5017 12.0964 15.4266C12.5327 13.9847 13.1398 15.6446 13.4671 16.0895C13.8823 16.6524 14.6495 15.8698 14.8606 16.8936C14.8724 16.9484 14.8706 17.0032 14.8554 17.058C14.8425 17.1033 14.8395 17.1521 14.8466 17.2045C14.8536 17.2605 14.8823 17.2998 14.9328 17.3224L15.4079 17.5458C15.463 17.572 15.5205 17.5821 15.5803 17.5762C16.2085 17.5083 16.907 17.4868 17.2818 17.9943C17.5668 18.3802 17.456 18.9127 17.3874 19.3683C17.3792 19.4267 17.3985 19.4731 17.4454 19.5077C17.7991 19.7686 18.9886 20.7459 17.6443 20.662C17.5586 20.6572 17.5334 20.6941 17.5686 20.7727C17.788 21.2719 17.751 21.7454 17.4578 22.1933C17.4202 22.2504 17.4308 22.2969 17.4894 22.3326L18.4748 22.933C18.5205 22.9616 18.5528 23.0009 18.5716 23.0509C18.7229 23.453 19.0202 23.2242 19.2877 23.2207C20.1217 23.2111 20.9118 23.3928 21.6578 23.7656C21.7153 23.793 21.7669 23.7853 21.8127 23.7424C21.93 23.6328 21.9663 23.4845 21.9218 23.2975ZM51.1622 23.1992L51.588 23.0402C51.5941 23.038 51.5998 23.0346 51.6046 23.0302C51.6094 23.0257 51.6134 23.0204 51.6161 23.0144C51.6189 23.0084 51.6205 23.0019 51.6208 22.9953C51.6211 22.9887 51.6201 22.9821 51.6179 22.9759L51.6056 22.9455C51.5699 22.8478 51.5096 22.7639 51.438 22.7123C51.3664 22.6607 51.2893 22.6456 51.2237 22.6703L51.2009 22.6793C51.1355 22.7042 51.087 22.7667 51.0659 22.8531C51.0447 22.9394 51.0528 23.0427 51.0883 23.1403L51.0988 23.1706C51.1035 23.1829 51.1128 23.1928 51.1247 23.1982C51.1366 23.2035 51.15 23.2039 51.1622 23.1992ZM58.0259 23.643C58.0429 23.6293 58.0565 23.6116 58.066 23.5909C58.0755 23.5702 58.0806 23.5469 58.081 23.5224C58.0815 23.4979 58.0773 23.4726 58.0687 23.448C58.0601 23.4234 58.0473 23.4 58.0309 23.379C58.0145 23.358 57.995 23.34 57.9734 23.3258C57.9517 23.3117 57.9284 23.3018 57.9048 23.2967C57.8812 23.2915 57.8578 23.2913 57.8358 23.2959C57.8138 23.3006 57.7937 23.31 57.7767 23.3237C57.7597 23.3374 57.746 23.3551 57.7366 23.3758C57.7271 23.3965 57.722 23.4197 57.7215 23.4442C57.7211 23.4687 57.7252 23.494 57.7338 23.5186C57.7424 23.5432 57.7553 23.5667 57.7717 23.5877C57.788 23.6086 57.8076 23.6267 57.8292 23.6408C57.8508 23.6549 57.8741 23.6648 57.8977 23.67C57.9213 23.6751 57.9448 23.6754 57.9668 23.6707C57.9888 23.6661 58.0089 23.6567 58.0259 23.643Z" fill="#E31837"/>
    <path d="M13.4829 1L13.6078 1.00715C13.6489 1.09768 13.7081 1.17332 13.7855 1.23407C15.9991 2.99467 18.215 4.75288 20.4332 6.50871L21.8355 7.6201C21.8825 7.65703 21.9118 7.70587 21.9235 7.76662C21.9904 8.13232 22.0643 8.36698 22.1452 8.47062C23.0778 9.66301 24.0004 10.8614 24.913 12.0657C24.9506 12.1145 24.9986 12.1371 25.0573 12.1336C26.2796 12.0573 27.4843 11.8715 28.6714 11.5761C29.2521 11.4314 29.5231 11.6869 30.0615 11.7458C31.1536 11.8661 32.2457 11.9817 33.3378 12.0925C33.4058 12.0984 33.4698 12.0841 33.5296 12.0496L35.0375 11.1741C35.0758 11.1519 35.118 11.1377 35.1618 11.1323C35.2055 11.1269 35.2499 11.1304 35.2923 11.1425C35.3347 11.1546 35.3743 11.1752 35.4088 11.203C35.4433 11.2308 35.472 11.2653 35.4933 11.3045C35.9073 12.0573 36.4604 12.6696 37.1525 13.1413C37.7508 13.5487 38.152 14.5583 38.488 15.1979C38.5209 15.2611 38.5696 15.2777 38.6341 15.248L39.4857 14.8602C39.5001 14.8537 39.5159 14.8509 39.5317 14.8521C39.5474 14.8534 39.5626 14.8586 39.5759 14.8672C39.5892 14.8759 39.6001 14.8879 39.6077 14.9019C39.6153 14.916 39.6193 14.9317 39.6194 14.9478C39.6159 15.6482 39.5925 16.3576 39.549 17.0759C39.5385 17.2391 39.4746 17.628 39.3573 18.2426C39.2622 18.7429 39.2558 19.2534 39.3379 19.7739C39.3485 19.8371 39.3854 19.868 39.4488 19.8668L40.9004 19.8365C40.9488 19.8354 40.9962 19.8515 41.0344 19.8821C41.0726 19.9128 41.0992 19.956 41.1098 20.0044L41.9333 23.8854C41.943 23.9328 41.9671 23.976 42.0021 24.0089C42.0371 24.0419 42.0813 24.063 42.1286 24.0694C43.626 24.2677 44.8576 23.9068 46.3867 23.7371L46.5116 23.7889C46.6782 24.1772 46.9592 24.4327 47.3545 24.5554V24.6751C47.338 25.042 47.2378 25.3702 47.0536 25.6597C47.0207 25.7097 47.0266 25.7549 47.0712 25.7954C47.585 26.2624 48.1803 26.5435 48.8571 26.6388C48.8699 26.6407 48.8829 26.6392 48.8949 26.6346C48.907 26.6299 48.9176 26.6222 48.9259 26.6122C48.9342 26.6021 48.9398 26.5901 48.9423 26.5773C48.9447 26.5645 48.9439 26.5512 48.9398 26.5388C48.7656 26.0045 48.3891 25.5114 48.8571 24.9503L49.0261 24.8681L49.7299 23.8586C49.7627 23.8109 49.8073 23.7787 49.8636 23.7621C50.1792 23.6703 50.344 23.4714 50.358 23.1653C50.3968 22.2951 50.7539 22.4148 51.3839 22.1218C51.4355 22.098 51.4724 22.0598 51.4947 22.0074C51.7833 21.2981 52.7405 20.846 53.4109 20.7138C53.4695 20.7031 53.5176 20.6745 53.5552 20.628C54.0279 20.0491 54.4813 19.463 54.9153 18.8698C55.137 18.5684 55.4138 18.5309 55.7458 18.7572C55.7916 18.7882 55.8285 18.7799 55.8567 18.7322L56.2367 18.0675C56.2696 18.0104 56.3183 17.9841 56.3828 17.9889C56.7171 18.0151 56.8895 17.8466 56.9001 17.4832C56.9153 17.4832 56.93 17.4832 56.9441 17.4832C57.5095 17.3784 58.0098 17.4969 58.445 17.8388C58.4907 17.8746 58.5036 17.9198 58.4837 17.9746C58.3453 18.3356 58.089 18.541 57.7148 18.5911C57.6491 18.6006 57.6068 18.6369 57.5881 18.7001C57.513 18.9478 57.3458 19.0783 57.0866 19.0914C57.0209 19.0949 56.9881 19.1301 56.9881 19.1968V19.4058C56.9881 19.4606 56.9658 19.5023 56.9212 19.5309L55.9693 20.1635C55.9188 20.1968 55.8848 20.2427 55.8672 20.301C55.703 20.8287 55.3663 21.1956 54.8572 21.4017C54.8405 21.4079 54.8263 21.4196 54.8169 21.435C54.8075 21.4504 54.8035 21.4685 54.8055 21.4865C54.8076 21.5045 54.8155 21.5212 54.8281 21.5341C54.8407 21.5469 54.8571 21.555 54.8748 21.5572C55.1728 21.5988 55.4314 21.7221 55.6508 21.927C55.6895 21.9628 55.7317 21.9687 55.7775 21.9449L56.2755 21.6822C56.3229 21.6573 56.3753 21.6436 56.4286 21.642C56.482 21.6403 56.535 21.6509 56.5837 21.6729C56.6324 21.6949 56.6755 21.7277 56.7099 21.7689C56.7442 21.8101 56.769 21.8587 56.7822 21.9109L56.9494 22.5774C56.9658 22.6441 57.0045 22.6918 57.0655 22.7204L57.5934 22.9741C57.6438 22.9991 57.6972 23.008 57.7535 23.0009C57.9247 22.9818 58.0643 23.0444 58.1723 23.1885C58.2215 23.254 58.2696 23.2534 58.3165 23.1867C58.4995 22.9354 58.7295 22.9181 59.0063 23.1349C59.0919 23.2016 59.1447 23.182 59.1646 23.0759C59.2227 22.7811 58.9746 22.1397 59.2227 21.9949C59.2908 21.9556 59.3435 21.9711 59.3811 22.0414L59.4444 22.1629C59.4843 22.2379 59.5347 22.2469 59.5957 22.1897C59.8386 21.9645 59.8562 21.7144 59.6485 21.4392C59.6051 21.3821 59.6092 21.3296 59.6608 21.282L59.9107 21.0515C59.9776 20.9884 60.0368 20.9955 60.0884 21.0729L60.194 21.2302C60.2304 21.2838 60.2773 21.3231 60.3348 21.3481C60.6409 21.4851 60.8937 21.6912 61.0931 21.9663C61.1271 22.0128 61.1465 22.0646 61.1512 22.1218L61.1899 22.5167C61.1981 22.6096 61.2474 22.6495 61.3377 22.6364C61.6192 22.5953 61.9571 22.4452 62.2316 22.6685C62.282 22.7102 62.3078 22.7632 62.309 22.8276L62.3143 23.1492C62.3178 23.285 62.3606 23.2999 62.4427 23.1939C62.763 22.7758 63.604 23.5655 63.97 23.8889C64.0134 23.9271 64.0639 23.9461 64.1213 23.9461L65.7771 23.93C65.8144 23.9298 65.8512 23.9392 65.884 23.9573C65.9168 23.9754 65.9446 24.0016 65.9648 24.0335C65.985 24.0654 65.9969 24.1019 65.9995 24.1398C66.002 24.1776 65.9951 24.2155 65.9794 24.2499C65.6873 24.886 64.892 24.9449 64.7425 25.4488C64.5606 26.0659 64.1864 26.269 63.6199 26.0581C63.5706 26.039 63.5454 26.0563 63.5442 26.1099L63.5336 26.612C63.5325 26.6534 63.5216 26.6939 63.5018 26.7301C63.482 26.7663 63.4539 26.7971 63.4199 26.8199C63.3859 26.8427 63.347 26.8568 63.3064 26.861C63.2659 26.8653 63.2249 26.8596 63.187 26.8443L62.543 26.5852C62.4503 26.5483 62.4157 26.5793 62.4392 26.6781C62.5037 26.9473 62.4069 27.1278 62.1489 27.2195C62.0386 27.2576 62.0245 27.3184 62.1066 27.4018L62.2017 27.4983C62.2486 27.5447 62.2527 27.5948 62.214 27.6484C62.099 27.8139 61.9465 27.8527 61.7565 27.7645C61.6861 27.7323 61.6228 27.7431 61.5664 27.7967L60.9893 28.3452C60.9459 28.3869 60.8961 28.3982 60.8398 28.3792L59.9758 28.0808C59.9218 28.0617 59.8808 28.0266 59.8526 27.9753C59.6169 27.5304 58.7019 27.9575 58.3007 28.0325C57.7857 28.3017 57.2819 28.4268 56.7892 28.4078C56.7118 28.4047 56.6377 28.375 56.5792 28.3237C56.5207 28.2724 56.4812 28.2025 56.4672 28.1254C56.3247 27.3285 55.9235 27.9146 55.5734 27.4965L55.6614 27.3178C55.8655 26.7973 56.1804 26.3547 56.6062 25.9902C56.652 25.9497 56.6749 25.8985 56.6749 25.8365C56.6655 25.1183 56.3892 24.5512 55.8461 24.1355C55.7628 24.0736 55.7048 24.092 55.6719 24.1909L55.4696 24.7788C55.452 24.8312 55.4232 24.877 55.3834 24.9163C54.8115 25.4774 54.1798 25.7865 53.5094 26.1921C52.5892 26.7514 52.7264 25.4024 51.954 25.9277C51.9082 25.9586 51.8853 26.0015 51.8853 26.0563V26.6603C51.8853 26.7258 51.8566 26.7728 51.7991 26.8014L51.5757 26.9176C51.5018 26.9557 51.4924 27.0057 51.5475 27.0677C51.9006 27.4727 52.0202 27.9325 51.9065 28.4471C51.7903 28.9795 51.3487 29.101 50.9669 28.7437C50.9199 28.6996 50.8648 28.677 50.8014 28.6758C50.663 28.6734 50.5399 28.7115 50.4319 28.7901C50.3498 28.8497 50.3586 28.8884 50.4583 28.9063C50.6894 28.9468 50.8149 29.0778 50.8349 29.2994C50.8407 29.3637 50.8138 29.4078 50.7539 29.4316L50.1416 29.6675C50.0959 29.6853 50.0888 29.7133 50.1205 29.7514L50.3668 30.0498C50.4865 30.1952 50.4736 30.3268 50.3281 30.4447C50.1158 30.6174 49.8765 30.724 49.6102 30.7645C49.5657 30.7717 49.5375 30.7967 49.5258 30.8396C49.4659 31.0528 49.4536 31.2654 49.4888 31.4775C49.4994 31.537 49.4894 31.5924 49.4589 31.6437C49.1563 32.1559 48.6912 32.3905 48.0636 32.3477C47.348 32.2988 46.6929 32.1827 46.0981 31.9992C46.0395 31.9825 45.9937 31.9992 45.9609 32.0493C45.8119 32.2756 45.6055 32.4102 45.3415 32.4531C45.2829 32.4638 45.2354 32.4936 45.199 32.5424C44.9233 32.9224 44.7961 33.3566 44.8172 33.845C44.8195 33.9117 44.8535 33.9534 44.9192 33.9701C45.4102 34.0916 46.0999 34.0094 45.9556 34.7777C45.9427 34.8468 45.9697 34.8873 46.0366 34.8992C46.7421 35.0243 47.7627 34.4882 47.9774 35.5871C48.046 35.9409 47.8507 36.175 47.6395 36.4269C47.5985 36.477 47.5774 36.5341 47.5762 36.5985C47.5586 37.5097 47.9322 38.1732 48.697 38.589C48.769 38.6284 48.8283 38.688 48.8679 38.7605C48.9076 38.8331 48.9258 38.9155 48.9205 38.9981C48.8888 39.4984 48.7287 40.4276 48.141 40.6098C48.0835 40.6265 48.0454 40.664 48.0266 40.7224C47.7609 41.5443 47.4636 41.8177 46.9691 42.4752C46.9351 42.5205 46.9199 42.5717 46.9234 42.6289L46.992 43.869C46.9955 43.9297 46.9838 43.9881 46.9568 44.0441L46.7017 44.5604C46.6594 44.645 46.6841 44.6962 46.7756 44.7141C46.9668 44.7522 47.1011 44.8475 47.1785 45C46.8618 44.9273 46.5257 44.6343 46.1703 44.1209C46.1583 44.1036 46.1421 44.0898 46.1231 44.0809C46.1042 44.072 46.0833 44.0684 46.0626 44.0704C46.0419 44.0724 46.022 44.0799 46.0051 44.0923C45.9881 44.1046 45.9747 44.1212 45.9662 44.1405C45.8307 44.4515 45.5157 44.3871 45.4559 44.0548C45.4465 44.0048 45.4248 43.9982 45.3908 44.0351C44.6395 44.8499 43.9497 44.2067 43.5556 43.4955C43.5227 43.4371 43.4752 43.4181 43.413 43.4383C42.5403 43.7242 41.7907 43.5974 40.8934 43.7206C40.8359 43.729 40.7796 43.7254 40.7244 43.7099L40.2282 43.5706L40.3162 43.5259L41.1379 43.567C41.1843 43.5693 41.2306 43.5615 41.2736 43.5438C41.3167 43.5262 41.3555 43.4993 41.3873 43.465C41.4191 43.4307 41.4431 43.3897 41.4578 43.345C41.4725 43.3003 41.4774 43.2529 41.4723 43.2061C41.372 42.2894 41.2734 41.3496 41.8699 40.5348C41.9133 40.4752 41.901 40.4323 41.833 40.4061C41.3297 40.2149 40.7825 40.4365 40.4499 39.8361C40.4218 39.7837 40.3784 39.7551 40.3197 39.7504C40.0957 39.7313 39.9203 39.6307 39.7936 39.4484C39.7549 39.3924 39.7021 39.3567 39.6353 39.3412L38.9244 39.184C38.8611 39.1697 38.803 39.1816 38.7502 39.2197C37.7473 39.9469 36.1689 37.9368 35.3015 37.4365C34.7067 37.0916 34.0487 36.8718 33.5806 36.359C33.3683 36.1256 33.1636 35.8837 32.9665 35.6336C32.929 35.5859 32.8809 35.5687 32.8222 35.5818C31.4515 35.8694 29.8327 33.4805 28.8263 32.7586C27.5999 31.8777 26.5177 31.197 25.7154 30.0838C25.679 30.0326 25.6585 29.9754 25.6538 29.9122C25.6116 29.2869 25.5013 28.674 25.323 28.0736C25.3054 28.0129 25.2684 27.9682 25.2121 27.9396L24.8462 27.7484C24.7922 27.7198 24.7535 27.6775 24.73 27.6216C24.3945 26.8199 24.1488 25.992 23.9928 25.1379C23.8362 24.2874 23.0725 23.7192 22.3159 23.4297C22.2408 23.4023 22.2021 23.4285 22.1998 23.5083C22.1822 23.9729 21.8391 24.3035 21.4027 24.0551C20.5769 23.5858 19.7129 23.4506 18.8109 23.6495C18.7523 23.662 18.6917 23.6584 18.6354 23.6393C18.579 23.6201 18.529 23.586 18.4906 23.5405C18.1563 23.1438 17.7463 22.8574 17.2607 22.6811C17.2225 22.6671 17.1874 22.6456 17.1576 22.6177C17.1277 22.5899 17.1036 22.5562 17.0867 22.5188C17.0698 22.4813 17.0605 22.4408 17.0593 22.3996C17.058 22.3585 17.0649 22.3175 17.0794 22.279L17.3645 21.5214C17.3868 21.4631 17.3891 21.4041 17.3715 21.3445C17.2765 21.0086 16.9316 20.4315 17.5053 20.2778C17.5616 20.2623 17.595 20.2248 17.6056 20.1652C17.6372 19.9741 16.9475 19.7203 16.805 19.6042C16.7416 19.5518 16.7434 19.5023 16.8102 19.4559C16.9733 19.3439 17.0624 19.1813 17.0777 18.9681C17.1639 17.7245 16.3088 17.8299 15.4747 17.9371C15.4137 17.9454 15.3557 17.9371 15.3005 17.9121L14.5105 17.5476C14.46 17.5237 14.4378 17.4844 14.4436 17.4296L14.5052 16.8078C14.5134 16.7197 14.4741 16.6708 14.3873 16.6613L13.4389 16.5648C13.3767 16.5589 13.3286 16.5285 13.2946 16.4737L12.5785 15.3141C12.5257 15.2295 12.4934 15.2372 12.4817 15.3373C12.3621 16.2897 11.5967 15.5624 11.1005 15.6714C11.0277 15.6881 11.0248 15.7131 11.0917 15.7465C11.6107 16.0038 11.7638 16.706 12.0207 17.2134C12.0571 17.2849 12.0424 17.3439 11.9767 17.3903C11.7949 17.5202 11.5861 17.5416 11.3503 17.4547C11.2928 17.4344 11.2682 17.3933 11.2764 17.3314L11.3204 17.0348C11.331 16.9633 11.3046 16.9115 11.2412 16.8793L10.4072 16.4612C10.3509 16.4326 10.3069 16.4457 10.2752 16.5005L9.57843 17.7066C9.54441 17.765 9.49515 17.8031 9.43063 17.821C8.94851 17.9556 8.46228 17.9746 7.97195 17.8781C7.91096 17.8662 7.85348 17.8757 7.79952 17.9067C7.26109 18.2141 6.85463 18.8251 6.29509 18.9824C6.23527 18.9991 6.20242 19.0384 6.19656 19.1003C6.10975 19.958 6.22471 20.7835 6.54143 21.5768C6.56489 21.6364 6.56078 21.6936 6.52911 21.7483C6.28277 22.1843 5.87104 22.4934 5.39947 22.0914C5.35255 22.0509 5.29859 22.0289 5.23759 22.0253C4.11382 21.9562 3.03462 21.7049 2 21.2713L4.27687 2.92081C4.28237 2.87576 4.30168 2.83367 4.33204 2.8006C4.3624 2.76752 4.40223 2.74518 4.44579 2.73677L13.4829 1ZM21.9218 23.2975L21.9288 23.1706C22.5218 23.0688 22.93 23.2564 23.3804 23.6995C23.6901 24.0051 24.0561 24.2534 24.1898 24.6876C24.3799 25.3059 24.452 25.9205 24.679 26.528C24.7846 26.808 24.8778 27.0951 24.9588 27.3893C24.9764 27.45 25.0145 27.4923 25.0731 27.5161C25.8368 27.8217 25.879 28.8562 25.916 29.6746C25.9183 29.7342 25.9383 29.7866 25.9758 29.8318C26.6421 30.6359 27.1424 31.1517 27.4767 31.3792C28.8245 32.2976 30.0586 33.3512 31.1788 34.5401C31.3923 34.7676 31.7595 35.0183 32.2803 35.2923C32.3319 35.3197 32.387 35.3298 32.4457 35.3227L32.9542 35.2619C33.0199 35.2548 33.0733 35.2762 33.1143 35.3263C33.5349 35.8337 33.936 36.3626 34.566 36.6431C35.3437 36.9921 36.0352 37.4656 36.6405 38.0636C37.1279 38.5443 37.6153 38.7819 38.1625 39.1339C38.2141 39.1673 38.264 39.1649 38.3121 39.1268C38.9068 38.6569 39.1813 39.0017 39.7989 39.0392C39.8634 39.044 39.915 39.072 39.9538 39.1232C40.0957 39.3055 40.281 39.4216 40.5098 39.4716C40.5708 39.4859 40.6218 39.5175 40.6629 39.5663L40.9532 39.9219C40.986 39.9636 41.0288 39.9833 41.0816 39.9809C41.5086 39.963 41.8951 40.0738 42.2412 40.3132C42.2975 40.3513 42.3069 40.3996 42.2693 40.4579C41.6852 41.3394 41.5508 42.299 41.8664 43.3365C41.884 43.3925 41.9209 43.4157 41.9772 43.4062L43.4394 43.1632C43.504 43.1524 43.5644 43.1644 43.6207 43.1989C43.8095 43.3192 43.9538 43.4848 44.0535 43.6956C44.0829 43.7552 44.1268 43.8005 44.1855 43.8314C44.5574 44.028 44.9116 44.0036 45.2483 43.7582C45.3093 43.7141 45.3767 43.6986 45.4506 43.7117L46.4888 43.8958C46.5159 43.9006 46.5438 43.8988 46.5702 43.8905C46.5965 43.8823 46.6206 43.8678 46.6403 43.8482C46.6601 43.8287 46.675 43.8047 46.6838 43.7781C46.6926 43.7516 46.6951 43.7233 46.6911 43.6956L46.538 42.6432C46.5298 42.5825 46.5427 42.5271 46.5767 42.477C46.9005 42.0125 47.5832 41.4085 47.6888 40.8671C47.7592 40.499 47.9363 40.29 48.2202 40.24C48.273 40.2304 48.307 40.2001 48.3222 40.1488L48.6618 38.9946C48.6865 38.9124 48.6583 38.8605 48.5774 38.8391C47.3949 38.5193 47.0641 36.9362 47.5392 35.9606C47.921 35.1762 47.2542 35.0511 46.6823 35.2119C46.4254 35.2846 46.1286 35.2429 45.792 35.0868C45.7298 35.0582 45.697 35.0088 45.6934 34.9385L45.6776 34.5561C45.6753 34.493 45.6436 34.4549 45.5826 34.4418L44.8101 34.281C44.7146 34.2608 44.6298 34.2053 44.5719 34.1251C44.5141 34.045 44.4874 33.9459 44.4969 33.8468C44.5585 33.2232 44.5796 32.2208 45.3873 32.0761C45.4436 32.0665 45.4917 32.0403 45.5316 31.9974C46.392 31.0665 48.4225 33.0802 49.1703 31.4632C49.1961 31.4072 49.2067 31.3488 49.202 31.2881C49.1785 31.0272 49.2061 30.7717 49.2847 30.5215C49.3046 30.4608 49.3457 30.4251 49.4079 30.4143L49.7228 30.3625C49.8108 30.3482 49.8372 30.2994 49.802 30.216C49.5962 29.7389 49.795 29.353 50.3035 29.2851C50.4337 29.2672 50.4355 29.241 50.3088 29.2065C49.7985 29.0653 49.3252 29.5996 48.9733 29.1046C48.9547 29.0789 48.9427 29.049 48.9382 29.0175C48.9337 28.9859 48.9369 28.9538 48.9475 28.9238C48.9581 28.8938 48.9758 28.8669 48.999 28.8455C49.0222 28.8241 49.0502 28.8087 49.0806 28.8009L50.8789 28.3363C50.9446 28.3196 51.0032 28.3339 51.0548 28.3792L51.3399 28.64C51.3985 28.6936 51.4525 28.6889 51.5018 28.6257C51.6496 28.4381 51.3575 28.3327 51.2343 28.2916C51.1135 28.2511 51.1135 28.2088 51.2343 28.1647L51.5792 28.0415C51.5944 28.0361 51.6083 28.0274 51.6199 28.0159C51.6315 28.0044 51.6404 27.9904 51.6461 27.9749C51.6518 27.9594 51.6541 27.9428 51.6529 27.9262C51.6517 27.9096 51.6469 27.8934 51.639 27.8789L51.0654 26.8514C51.022 26.7728 51.0431 26.7216 51.1287 26.6978L51.4824 26.6013C51.5457 26.5846 51.5774 26.5429 51.5774 26.4762V25.749C51.5774 25.6835 51.6067 25.6364 51.6654 25.6078C52.2296 25.3386 52.6725 25.4464 52.9939 25.9312C53.0326 25.9872 53.083 26.0021 53.1452 25.9759C53.9393 25.6269 54.6531 25.1552 55.2866 24.5608C55.3165 24.5329 55.3373 24.4966 55.3464 24.4564C55.3555 24.4163 55.3525 24.3743 55.3376 24.336C55.3227 24.2977 55.2968 24.2649 55.2632 24.2418C55.2296 24.2188 55.1899 24.2066 55.1493 24.207L54.0443 24.2052C53.9775 24.2052 53.9446 24.1718 53.9458 24.1051L53.9511 23.3154C53.9522 23.2665 53.9745 23.2332 54.0179 23.2153C54.1992 23.1438 54.1763 23.7514 54.1728 23.9104C54.1704 23.9842 54.205 24.0182 54.2766 24.0122L54.3681 24.0051C54.4279 24.0003 54.4537 23.9681 54.4455 23.9086C54.415 23.6727 54.4297 23.4428 54.4895 23.2189C54.5423 23.0223 54.5951 23.0223 54.6479 23.2189C54.7077 23.444 54.7223 23.6739 54.6918 23.9086C54.6836 23.9777 54.7135 24.0122 54.7816 24.0122H54.8977C54.9716 24.0122 55.0086 23.9747 55.0086 23.8997V23.2904C55.0086 23.226 55.0402 23.198 55.1036 23.2064L55.1564 23.2153C55.1998 23.2213 55.2221 23.2463 55.2232 23.2904L55.2373 23.9247C55.2432 24.1474 55.2977 24.1605 55.4009 23.964C55.5007 23.7758 55.5282 23.5715 55.4836 23.3511C55.4731 23.2939 55.4924 23.251 55.5417 23.2225C55.5558 23.2141 55.5704 23.2088 55.5857 23.2064C55.6291 23.2016 55.6602 23.2189 55.679 23.2582L55.7863 23.4833C55.8367 23.5882 55.8708 23.5828 55.8883 23.4672C55.9118 23.3207 55.9839 23.2165 56.1048 23.1546C56.1974 23.1081 56.2344 23.1361 56.2156 23.2385C56.1886 23.3827 56.1235 23.5042 56.0203 23.603C55.9757 23.6459 55.9675 23.6954 55.9957 23.7513C56.2156 24.1712 56.6221 24.4071 56.7769 24.8073C57.3787 26.3547 56.4039 26.2064 55.9904 27.3071C55.9622 27.3798 55.9869 27.4131 56.0643 27.4071C56.4197 27.3786 56.6279 27.5376 56.6889 27.8842C56.6964 27.9263 56.7127 27.9663 56.7366 28.0015C56.7606 28.0366 56.7918 28.0662 56.828 28.088C56.8642 28.1099 56.9047 28.1236 56.9465 28.1282C56.9884 28.1328 57.0308 28.1282 57.0708 28.1147C57.845 27.8503 58.5512 27.6305 59.1893 27.4554C59.5998 27.3422 59.9213 27.456 60.1535 27.7967C60.1646 27.8129 60.1793 27.8263 60.1964 27.8356C60.2136 27.845 60.2326 27.85 60.2519 27.8504C60.2712 27.8507 60.2903 27.8464 60.3074 27.8376C60.3246 27.8289 60.3394 27.8161 60.3506 27.8002L60.5406 27.5376C60.6075 27.4447 60.6667 27.4488 60.7183 27.5501L60.8468 27.8002C60.8534 27.8128 60.8626 27.8237 60.8737 27.8324C60.8849 27.841 60.8977 27.8472 60.9114 27.8504C60.925 27.8536 60.9392 27.8538 60.9529 27.851C60.9667 27.8482 60.9797 27.8425 60.9911 27.8342L61.5823 27.3946C61.6292 27.3589 61.6621 27.313 61.6808 27.2571C61.7407 27.0855 61.8603 26.9664 62.0398 26.8997C62.0973 26.8794 62.1242 26.8384 62.1207 26.7764C62.0961 26.4441 62.2333 26.235 62.5325 26.1492C62.5899 26.1338 62.6386 26.1486 62.6785 26.1939C62.8064 26.3392 62.963 26.4381 63.1483 26.4905C63.2257 26.512 63.2568 26.4834 63.2416 26.4047C63.2111 26.2427 63.1383 26.0992 63.0234 25.9741C62.9882 25.9372 62.9694 25.8931 62.9671 25.8419C62.9336 25.2558 63.6709 25.6704 63.8627 25.7812C63.9087 25.8079 63.9629 25.816 64.0145 25.8037C64.0661 25.7914 64.1112 25.7597 64.1407 25.715L64.6281 24.9699C64.6645 24.914 64.7114 24.8699 64.7689 24.8377L65.4516 24.4428C65.536 24.3952 65.5302 24.3648 65.434 24.3517C64.8862 24.2767 64.5348 24.2511 64.38 24.2749C63.8328 24.3589 63.1764 23.7442 62.8228 23.453C62.7794 23.4172 62.7389 23.4202 62.7014 23.4619L62.4585 23.7299C62.3999 23.7954 62.3401 23.796 62.2791 23.7317C62.0867 23.5244 61.9952 23.2755 62.0046 22.9848C62.0093 22.8776 61.9653 22.8502 61.8726 22.9026C61.5453 23.092 61.2298 23.0736 60.926 22.8472C60.8732 22.8079 60.8491 22.7555 60.8538 22.69C60.8808 22.2481 60.6978 21.9431 60.3048 21.7751C60.2415 21.7489 60.1958 21.7674 60.1676 21.8305L59.8808 22.4809C59.8515 22.5488 59.7999 22.5828 59.7259 22.5828H59.5922C59.4773 22.5828 59.4298 22.6406 59.4497 22.7561C59.5119 23.1027 59.3946 23.3398 59.0978 23.4672C59.0321 23.4958 59.0039 23.5465 59.0133 23.6191C59.0292 23.7478 59.1013 24.2248 58.8849 24.232C58.8321 24.2332 58.8045 24.2076 58.8022 24.1552L58.7687 23.5012C58.7652 23.4202 58.723 23.3809 58.6421 23.3833L58.445 23.3904C58.3582 23.394 58.3142 23.4398 58.313 23.528L58.2989 24.2034C58.296 24.2238 58.286 24.2424 58.2706 24.2559C58.2553 24.2694 58.2357 24.2768 58.2154 24.2768C58.1951 24.2768 58.1755 24.2694 58.1601 24.2559C58.1448 24.2424 58.1347 24.2238 58.1318 24.2034C58.1271 23.995 58.0391 23.8669 57.8679 23.8192C57.7799 23.7942 57.7359 23.8282 57.7359 23.9211V24.1069C57.7359 24.1772 57.7013 24.2076 57.6321 24.198L57.5687 24.1909C57.5171 24.1838 57.4925 24.1534 57.4948 24.0998L57.5247 23.3583C57.5283 23.2808 57.4948 23.2284 57.4244 23.201L56.8209 22.9598C56.7576 22.9348 56.7171 22.8883 56.6995 22.8204L56.5147 22.0986C56.5069 22.068 56.4908 22.0403 56.4682 22.0186C56.4456 21.997 56.4174 21.9822 56.3869 21.9761C56.3564 21.9699 56.3248 21.9726 56.2958 21.9838C56.2667 21.9951 56.2414 22.0144 56.2227 22.0396C56.0807 22.2338 55.8919 22.3285 55.6561 22.3237C55.5916 22.3225 55.5353 22.2999 55.4872 22.2558C55.2291 22.0152 54.9264 21.8758 54.5792 21.8377C54.5229 21.8317 54.4813 21.8031 54.4543 21.7519C54.2185 21.3195 55.1405 20.8264 55.3763 20.5548C55.415 20.5107 55.4402 20.4595 55.452 20.4011C55.5312 19.983 56.2508 19.5077 56.6168 19.3451C56.6708 19.3225 56.6989 19.2814 56.7013 19.2218C56.713 18.9216 56.8573 18.7501 57.1341 18.7072C57.1951 18.6989 57.2426 18.6691 57.2766 18.6179C57.4362 18.3784 57.6596 18.2516 57.947 18.2373C57.9742 18.2358 58.0003 18.2263 58.0221 18.2097C58.0438 18.1932 58.0603 18.1705 58.0694 18.1445C58.0784 18.1185 58.0796 18.0903 58.0729 18.0635C58.0662 18.0368 58.0517 18.0127 58.0315 17.9943C57.6315 17.6357 57.2954 17.675 57.0233 18.1122C56.9928 18.161 56.9494 18.189 56.8931 18.1962C55.9746 18.3105 56.3863 19.4755 55.4555 19.0378C55.4006 19.0112 55.338 19.0054 55.2791 19.0215C55.2201 19.0375 55.1685 19.0743 55.1335 19.1253C54.5863 19.9169 53.9018 21.0533 52.8689 21.1819C52.8068 21.1891 52.751 21.2117 52.7018 21.2498L51.998 21.7841C51.9417 21.827 51.9082 21.8829 51.8977 21.952C51.8695 22.1319 51.7768 22.2695 51.6196 22.3648C51.5657 22.3981 51.5586 22.4392 51.5985 22.4881L51.873 22.8347C51.9129 22.8848 51.9639 22.9092 52.0261 22.908L52.8795 22.8919C52.8993 22.8906 52.9189 22.8968 52.9346 22.9093C52.9502 22.9218 52.9608 22.9397 52.9643 22.9595C52.9677 22.9794 52.9639 22.9999 52.9534 23.0171C52.943 23.0343 52.9267 23.047 52.9076 23.0527C52.5604 23.1694 52.4748 23.447 52.6508 23.8854C52.7305 24.0843 52.666 24.2004 52.4572 24.2338C52.276 24.2642 52.3076 23.4297 52.2724 23.26C52.2619 23.2088 52.2326 23.1742 52.1845 23.1563L51.998 23.0884C51.9252 23.061 51.8713 23.0825 51.8361 23.1528C51.5281 23.7442 50.7117 23.5602 50.8349 22.8008C50.8501 22.7126 50.8185 22.69 50.7399 22.7329C50.3897 22.9294 50.8842 23.7728 49.9833 24.039C49.9199 24.0569 49.8706 24.0938 49.8355 24.1498L49.297 25.0164C49.2642 25.07 49.2225 25.1141 49.1721 25.1486C48.69 25.472 49.0507 26.0903 49.2178 26.4655C49.2381 26.5107 49.2468 26.5603 49.243 26.6098C49.2392 26.6593 49.2231 26.707 49.1962 26.7484C49.1693 26.7898 49.1324 26.8237 49.0891 26.8467C49.0458 26.8697 48.9975 26.8812 48.9486 26.88C48.07 26.8574 47.3204 26.5286 46.6999 25.8937C46.6553 25.8485 46.6442 25.7955 46.6665 25.7347C46.7509 25.5131 47.0729 25.1129 47.0518 24.911C47.0448 24.8514 47.0131 24.8133 46.9568 24.7966L46.7052 24.7234C46.6489 24.7067 46.6131 24.6698 46.5979 24.6126L46.4905 24.2016C46.4706 24.129 46.4237 24.0956 46.3498 24.1016C45.9398 24.1409 45.5896 24.0748 45.1849 24.1587C44.1562 24.372 43.0963 24.4321 42.0054 24.3392C41.9289 24.3326 41.8566 24.3012 41.7989 24.2498C41.7413 24.1983 41.7014 24.1295 41.6852 24.0533L40.8846 20.2349C40.8801 20.2141 40.8686 20.1954 40.8519 20.1821C40.8353 20.1687 40.8145 20.1615 40.7931 20.1617H39.2869C39.246 20.1617 39.2055 20.1533 39.168 20.1369C39.1304 20.1204 39.0965 20.0963 39.0683 20.0661C39.0402 20.0358 39.0183 20 39.0042 19.9608C38.99 19.9217 38.9838 19.88 38.986 19.8383C39.0141 19.2855 39.0335 18.6965 39.0441 18.0711C39.0476 17.8478 39.2306 17.6441 39.2499 17.36C39.2957 16.7048 39.3326 16.0437 39.3608 15.3766C39.3655 15.2932 39.3297 15.2682 39.2534 15.3016L38.5584 15.6107C38.5072 15.6336 38.4494 15.636 38.3963 15.6175C38.3432 15.5989 38.2987 15.5608 38.2716 15.5106L37.281 13.6595C37.2505 13.6023 37.2071 13.5582 37.1508 13.5273C36.2393 13.0252 35.8065 12.3444 35.2276 11.5403C35.1853 11.482 35.1349 11.4736 35.0762 11.5153C34.4375 11.9781 33.7918 12.3873 32.9665 12.3426C31.7923 12.2795 30.6246 12.1449 29.4632 11.9388C29.1594 11.884 28.858 11.8864 28.5588 11.9459C27.3482 12.189 26.1435 12.3623 24.9447 12.4659C24.9026 12.4698 24.8602 12.4628 24.8214 12.4456C24.7827 12.4284 24.7488 12.4016 24.723 12.3676L21.8144 8.58855C21.7734 8.53733 21.7505 8.47896 21.7458 8.41344C21.6825 7.69872 20.9487 7.35744 20.4508 6.95005L20.3082 6.85892L16.1662 3.59086L14.6337 2.39192L14.5017 2.30258C14.1615 1.93688 13.7779 1.62657 13.3509 1.37166L4.61823 3.02981C4.55958 3.04172 4.52614 3.07805 4.51793 3.1388L2.34487 21.1176C2.33901 21.1688 2.36071 21.1998 2.40998 21.2105C3.02817 21.3451 3.64578 21.4821 4.2628 21.6215C4.70797 21.7215 5.32733 21.5875 5.76194 21.8913C5.80557 21.9219 5.85752 21.938 5.91054 21.9372C5.96357 21.9365 6.01505 21.9189 6.05783 21.8871C6.1006 21.8553 6.13254 21.8107 6.1492 21.7596C6.16587 21.7084 6.16643 21.6533 6.15081 21.6018C5.88335 20.7287 5.81121 19.8377 5.93438 18.9288C5.94259 18.8656 5.97368 18.818 6.02764 18.7858C6.45345 18.5297 6.84701 18.2283 7.2083 17.8817C7.7045 17.4064 8.52622 17.6083 9.15438 17.5565C9.21303 17.5517 9.25878 17.5249 9.29163 17.4761C9.6453 16.9508 9.63298 16.4541 10.2154 16.0431C10.2658 16.0073 10.3186 16.0032 10.3738 16.0306L11.2395 16.4648C11.3873 16.5398 11.4013 16.519 11.2817 16.4022C11.0834 16.2105 10.8682 16.0502 10.6359 15.9216C10.5972 15.8998 10.5648 15.8681 10.542 15.8295C10.5192 15.791 10.5068 15.747 10.5061 15.7021C10.5054 15.6571 10.5163 15.6128 10.5379 15.5735C10.5595 15.5343 10.5909 15.5015 10.6289 15.4785C11.0852 15.2021 11.5304 15.2015 11.9644 15.4767C12.0289 15.5184 12.0729 15.5017 12.0964 15.4266C12.5327 13.9847 13.1398 15.6446 13.4671 16.0895C13.8823 16.6524 14.6495 15.8698 14.8606 16.8936C14.8724 16.9484 14.8706 17.0032 14.8554 17.058C14.8425 17.1033 14.8395 17.1521 14.8466 17.2045C14.8536 17.2605 14.8823 17.2998 14.9328 17.3224L15.4079 17.5458C15.463 17.572 15.5205 17.5821 15.5803 17.5762C16.2085 17.5083 16.907 17.4868 17.2818 17.9943C17.5668 18.3802 17.456 18.9127 17.3874 19.3683C17.3792 19.4267 17.3985 19.4731 17.4454 19.5077C17.7991 19.7686 18.9886 20.7459 17.6443 20.662C17.5586 20.6572 17.5334 20.6941 17.5686 20.7727C17.788 21.2719 17.751 21.7454 17.4578 22.1933C17.4202 22.2504 17.4308 22.2969 17.4894 22.3326L18.4748 22.933C18.5205 22.9616 18.5528 23.0009 18.5716 23.0509C18.7229 23.453 19.0202 23.2242 19.2877 23.2207C20.1217 23.2111 20.9118 23.3928 21.6578 23.7656C21.7153 23.793 21.7669 23.7853 21.8127 23.7424C21.93 23.6328 21.9663 23.4845 21.9218 23.2975ZM51.1622 23.1992L51.588 23.0402C51.5941 23.038 51.5998 23.0346 51.6046 23.0302C51.6094 23.0257 51.6134 23.0204 51.6161 23.0144C51.6189 23.0084 51.6205 23.0019 51.6208 22.9953C51.6211 22.9887 51.6201 22.9821 51.6179 22.9759L51.6056 22.9455C51.5699 22.8478 51.5096 22.7639 51.438 22.7123C51.3664 22.6607 51.2893 22.6456 51.2237 22.6703L51.2009 22.6793C51.1355 22.7042 51.087 22.7667 51.0659 22.8531C51.0447 22.9394 51.0528 23.0427 51.0883 23.1403L51.0988 23.1706C51.1035 23.1829 51.1128 23.1928 51.1247 23.1982C51.1366 23.2035 51.15 23.2039 51.1622 23.1992ZM58.0259 23.643C58.0429 23.6293 58.0565 23.6116 58.066 23.5909C58.0755 23.5702 58.0806 23.5469 58.081 23.5224C58.0815 23.4979 58.0773 23.4726 58.0687 23.448C58.0601 23.4234 58.0473 23.4 58.0309 23.379C58.0145 23.358 57.995 23.34 57.9734 23.3258C57.9517 23.3117 57.9284 23.3018 57.9048 23.2967C57.8812 23.2915 57.8578 23.2913 57.8358 23.2959C57.8138 23.3006 57.7937 23.31 57.7767 23.3237C57.7597 23.3374 57.746 23.3551 57.7366 23.3758C57.7271 23.3965 57.722 23.4197 57.7215 23.4442C57.7211 23.4687 57.7252 23.494 57.7338 23.5186C57.7424 23.5432 57.7553 23.5667 57.7717 23.5877C57.788 23.6086 57.8076 23.6267 57.8292 23.6408C57.8508 23.6549 57.8741 23.6648 57.8977 23.67C57.9213 23.6751 57.9448 23.6754 57.9668 23.6707C57.9888 23.6661 58.0089 23.6567 58.0259 23.643Z" stroke="#E31837" stroke-width="2" mask="url(#path-1-outside-1_1_286)"/>
</svg>