<svg width="42" height="48" viewBox="0 0 42 48" fill="none" xmlns="http://www.w3.org/2000/svg">
    <g clip-path="url(#clip0_1_277)">
        <path d="M40.2979 37.7601C39.7787 34.6408 37.5961 32.0814 34.6022 31.0811L33.8088 30.8163C34.858 30.0963 35.5062 29.1402 35.5502 29.0736L35.9551 28.4643L35.3718 28.0254C34.4114 27.303 33.6496 26.3392 33.1706 25.2375L31.7536 25.8576C32.2334 26.9577 32.9427 27.9456 33.8273 28.7523C33.3398 29.2857 32.4822 30.0065 31.528 30.0545L27.9539 28.8607V27.8705H26.4087V29.3252L25.2559 33.9456L22.1354 30.1931H19.8654L16.7448 33.9456L15.5921 29.3252V27.8705H14.0469V28.8607L10.4751 30.0537C9.51164 30.0251 8.65867 29.2896 8.17192 28.7539C9.92807 27.1505 10.9564 24.8496 10.9564 22.4512H9.4112C9.4112 24.6321 8.37126 26.7162 6.62902 28.0254L6.04492 28.4643L6.44977 29.0736C6.49381 29.1394 7.1428 30.0963 8.19047 30.8163L7.39777 31.0811C4.40389 32.0814 2.22126 34.6408 1.70207 37.7601L0 47.9995H42L40.2979 37.7601ZM34.5991 46.4512C34.7707 45.893 34.9074 45.142 34.9074 44.1286C34.9074 41.5157 33.2084 39.783 33.1358 39.7103L32.0433 40.805C32.0565 40.8189 33.3622 42.149 33.3622 44.1286C33.3622 45.413 33.1072 46.1245 32.9458 46.4512H21.773V33.2899H20.2278V46.4512H9.05811C8.89045 46.1152 8.63858 45.4045 8.63858 44.1286C8.63858 42.173 9.94662 40.8166 9.95975 40.8026L9.4112 40.2576L8.86496 39.7103C8.79233 39.783 7.09336 41.5157 7.09336 44.1286C7.09336 45.142 7.23011 45.893 7.40163 46.4512H1.82491L3.2272 38.0148C3.65214 35.463 5.43765 33.3688 7.8876 32.5497L10.7115 31.6068C10.7262 31.606 10.7409 31.606 10.7555 31.6052L10.7548 31.5921L14.2725 30.4176L15.9846 37.2793L20.5901 31.7415H21.4106L26.0162 37.2793L27.7283 30.4176L31.2398 31.5905L31.2383 31.6099C31.2599 31.6114 31.2808 31.6106 31.3024 31.6122L34.1124 32.5505C36.5624 33.3696 38.3479 35.4638 38.7728 38.0155L40.1759 46.4512H34.5991Z" fill="#E31837"/>
        <path d="M24.8636 37.9355H23.3184V39.4839H24.8636V37.9355Z" fill="#E31837"/>
        <path d="M24.8636 43.3555H23.3184V44.9039H24.8636V43.3555Z" fill="#E31837"/>
        <path d="M8.63846 20.9032H11.3086C11.7057 22.2449 12.4305 23.4751 13.4457 24.4924L16.4581 27.511C17.1874 28.2418 18.1578 28.6452 19.19 28.6452H22.8105C23.8427 28.6452 24.8131 28.2418 25.5425 27.511L27.501 25.5484H28.7264C30.8565 25.5484 32.5895 23.8119 32.5895 21.6774V20.9032H33.3621C35.4922 20.9032 37.2251 19.1667 37.2251 17.0323V13.9355C37.2251 11.801 35.4922 10.0645 33.3621 10.0645H32.462C31.6986 4.36723 26.8049 0 21.0003 0C15.1956 0 10.3019 4.36723 9.53855 10.0645H8.63846C6.50836 10.0645 4.77539 11.801 4.77539 13.9355V17.0323C4.77539 19.1667 6.50836 20.9032 8.63846 20.9032ZM34.1347 11.7561C35.0317 12.0759 35.6799 12.9275 35.6799 13.9355V17.0323C35.6799 18.0403 35.0317 18.8919 34.1347 19.2124V11.7561ZM27.4624 23.3977L26.8613 24H18.6824V25.5484H25.3161L24.45 26.4163C24.0119 26.8552 23.4301 27.0968 22.8105 27.0968H19.19C18.5704 27.0968 17.9879 26.8552 17.5506 26.4163L14.5381 23.3977C13.2255 22.0815 12.5015 20.3319 12.5015 18.4707V17.8065C12.5015 15.2446 14.5806 13.1613 17.1372 13.1613H18.4924C19.778 13.1613 21.0513 12.7363 22.0804 11.9636L23.1729 11.1422C24.2986 12.4188 25.9195 13.1613 27.6486 13.1613H29.499V13.9355V18.4707C29.499 20.3319 28.7751 22.0815 27.4624 23.3977ZM31.0442 18.4707V13.9355V11.6129H32.5895V19.3548H31.0442V18.4707ZM31.0442 21.6774C31.0442 22.855 30.1627 23.8196 29.0285 23.9698C29.7957 23.064 30.3605 22.0243 30.6919 20.9032H31.0442V21.6774ZM21.0003 1.54839C25.9605 1.54839 30.1581 5.22813 30.9083 10.0645H29.499V11.6129H27.6486C26.1629 11.6129 24.7845 10.8735 23.9609 9.63484L23.5082 8.95355L21.1525 10.7249C20.3907 11.2978 19.445 11.6129 18.4924 11.6129H17.1372C15.2907 11.6129 13.635 12.4328 12.5015 13.7234V10.0645H11.0923C11.8425 5.22813 16.0401 1.54839 21.0003 1.54839ZM9.41107 11.6129H10.9563V13.9355V18.4707V19.3548H9.41107V11.6129ZM6.32062 13.9355C6.32062 12.9275 6.96884 12.0759 7.86584 11.7554V19.2116C6.96884 18.8911 6.32062 18.0395 6.32062 17.0315V13.9355Z" fill="#E31837"/>
    </g>
    <defs>
        <clipPath id="clip0_1_277">
            <rect width="42" height="48" fill="white"/>
        </clipPath>
    </defs>
</svg>