<svg width="55" height="48" viewBox="0 0 55 48" fill="none" xmlns="http://www.w3.org/2000/svg">
    <g clip-path="url(#clip0_1_270)">
        <path d="M33.8427 35.3262H30.8277C30.3827 35.3262 30.022 35.686 30.022 36.13C30.022 36.574 30.3827 36.9338 30.8277 36.9338H33.8427C34.2876 36.9338 34.6484 36.574 34.6484 36.13C34.6484 35.686 34.2876 35.3262 33.8427 35.3262Z" fill="#E31837"/>
        <path d="M51.5895 26.7214L47.2022 25.033L44.9654 22.8014C44.8218 22.6581 44.6367 22.5805 44.4476 22.5684V20.7926C45.5019 19.6712 46.2523 18.251 46.5551 16.6511C46.7431 16.6596 46.9329 16.6445 47.1202 16.6063C48.1921 16.3874 48.9702 15.395 48.9702 14.247V13.6609C48.9702 12.9967 48.7002 12.3871 48.2607 11.9512C48.9721 8.09086 48.3861 4.94489 46.5585 2.83925C44.7906 0.802635 41.9424 -0.170821 38.3222 0.0245558C34.9775 0.204929 32.8183 1.74029 32.1342 2.30199C31.7597 2.34636 31.1219 2.47754 30.4763 2.86401C29.5814 3.39966 28.5148 4.52488 28.5148 6.84336C28.5148 8.86594 28.8388 10.5546 29.0734 11.5126C28.2871 11.8948 27.7611 12.723 27.7611 13.6699V14.2469C27.7611 15.3949 28.5391 16.3873 29.6111 16.6062C29.7983 16.6445 29.9882 16.6595 30.1761 16.651C30.479 18.2509 31.2295 19.6711 32.2836 20.7925V22.5683C32.0946 22.5804 31.9094 22.658 31.7659 22.8013L29.529 25.0329L25.1418 26.7212C24.7623 26.8672 24.3997 27.0566 24.0643 27.2839C23.6963 27.5334 23.6007 28.0333 23.8507 28.4004C24.0065 28.6294 24.2599 28.7526 24.5178 28.7526C24.6736 28.7526 24.8311 28.7075 24.9698 28.6136C25.2037 28.4551 25.4566 28.3231 25.7216 28.221L29.7933 26.6542L32.9064 31.3131C33.2922 31.8906 33.9108 32.2611 34.6031 32.3295C34.6801 32.3371 34.7572 32.3409 34.8336 32.3409C35.2344 32.3409 35.6233 32.2357 35.9675 32.0414L35.2994 47.1602C35.2798 47.6037 35.6243 47.9791 36.0689 47.9986C36.0809 47.9991 36.0929 47.9994 36.105 47.9994C36.5336 47.9994 36.8902 47.6623 36.9092 47.2309L37.5293 33.1975H39.2019L39.8219 47.2309C39.8409 47.6624 40.1976 47.9994 40.6262 47.9994C40.6382 47.9994 40.6502 47.9991 40.6623 47.9986C41.1068 47.9791 41.4513 47.6037 41.4317 47.1602L40.7637 32.0414C41.1079 32.2357 41.4966 32.3409 41.8975 32.3409C41.974 32.3409 42.051 32.3371 42.128 32.3295C42.8204 32.2611 43.4388 31.8906 43.8248 31.3131L46.9379 26.6542L51.0095 28.221C51.5806 28.4407 52.0721 28.7913 52.4586 29.2287L49.6731 32.0078C48.6666 33.0119 48.1124 34.3468 48.1124 35.7667V47.1957C48.1124 47.6396 48.4732 47.9995 48.9181 47.9995C49.363 47.9995 49.7238 47.6396 49.7238 47.1957V35.7667C49.7238 34.7763 50.1104 33.845 50.8124 33.1446L53.2571 30.7055C53.3553 31.0649 53.4012 31.4427 53.3857 31.8289L52.7617 47.1631C52.7436 47.6067 53.0894 47.9808 53.5339 47.9989C53.5451 47.9994 53.5562 47.9996 53.5672 47.9996C53.997 47.9996 54.3541 47.6608 54.3716 47.2285L54.9958 31.8939C55.0873 29.6192 53.7184 27.5406 51.5895 26.7214ZM31.7533 16.3196C31.6112 15.5479 30.8949 14.9869 30.1218 15.044C30.0606 15.0484 29.9977 15.0442 29.9343 15.0313C29.614 14.9659 29.3724 14.6286 29.3724 14.247V13.6698C29.3724 13.2969 29.6221 12.961 29.9409 12.9052C30.2099 12.858 30.4675 12.9565 30.6304 13.1686C30.7783 13.361 30.9757 13.4986 31.2009 13.5663C31.5309 13.6658 31.8948 13.6074 32.1745 13.4104C32.6783 13.0556 33.1228 12.622 33.4957 12.1217C33.7612 11.7655 33.6869 11.262 33.3299 10.9972C32.9728 10.7322 32.4682 10.8063 32.2026 11.1625C32.0167 11.412 31.8066 11.6385 31.5753 11.8389C31.3199 11.6209 31.0214 11.4634 30.7016 11.3735C30.4946 10.5823 30.1262 8.88737 30.1262 6.84315C30.1262 5.61204 30.5066 4.74705 31.2567 4.27227C31.842 3.90177 32.4611 3.88687 32.4611 3.88687C32.667 3.88687 32.8675 3.80596 33.017 3.66481C33.0367 3.64637 35.0172 1.81264 38.409 1.62969C41.5137 1.4625 43.9105 2.24444 45.3402 3.89148C46.7811 5.5516 47.261 8.10029 46.7404 11.2903C46.5246 11.2827 46.2884 11.299 46.0533 11.3381L45.2964 9.52452C45.1419 9.15455 44.7373 8.95478 44.3487 9.05585C44.2738 9.07535 36.8336 10.9571 33.714 7.08214C33.4354 6.73608 32.9284 6.68078 32.5813 6.95879C32.2344 7.23679 32.179 7.74265 32.4578 8.08882C35.6435 12.0459 41.9647 11.1851 44.0688 10.7653L44.6542 12.1676C44.9059 12.7705 45.5498 13.0997 46.1844 12.9504C46.4449 12.8892 46.6938 12.8878 46.7873 12.9063C47.1131 12.971 47.3588 13.2952 47.3588 13.6607V14.2469C47.3588 14.6286 47.1172 14.9658 46.7968 15.0312C46.7336 15.0442 46.6703 15.0484 46.6094 15.0439C45.8364 14.9878 45.1201 15.5477 44.9778 16.3196C44.3918 19.5031 41.6109 21.8138 38.3656 21.8138C35.1202 21.8138 32.3394 19.5031 31.7533 16.3196ZM35.3273 30.5283C35.123 30.7321 34.8855 30.7421 34.762 30.7299C34.6386 30.7177 34.4075 30.6614 34.2472 30.4215L31.111 25.7282L32.3723 24.4698L37.1869 28.673L35.3273 30.5283ZM37.6003 31.59L37.6491 30.4853L38.3655 29.7705L39.0819 30.4853L39.1306 31.59H37.6003ZM38.3656 27.5657L33.895 23.6629V22.1246C35.1948 22.9493 36.7326 23.4214 38.3656 23.4214C39.9985 23.4214 41.5365 22.9493 42.8363 22.1246V23.6629L38.3656 27.5657ZM42.4841 30.4215C42.3238 30.6615 42.0927 30.7177 41.9694 30.7299C41.8457 30.7421 41.6082 30.7321 41.4039 30.5282L39.5443 28.6729L44.359 24.4697L45.6202 25.7281L42.4841 30.4215Z" fill="#E31837"/>
        <path d="M25.5498 30.9341L21.6158 29.221L19.4653 27.0755C19.3213 26.9316 19.1361 26.8545 18.9475 26.8425V25.5779C20.7854 24.373 22.1304 22.4566 22.5625 20.173C22.7741 20.1825 22.9878 20.1622 23.1984 20.1126C24.2293 19.8692 24.9775 18.8835 24.9775 17.7689V17.1829C24.9775 16.3686 24.5725 15.6361 23.945 15.2063C24.1296 14.4769 24.2237 13.7306 24.2237 12.9795C24.2237 9.64936 22.4194 6.71624 19.6998 5.03212C19.6708 2.25279 17.293 0 14.373 0C11.4529 0 9.07511 2.25279 9.04611 5.03212C6.3266 6.71624 4.52234 9.64947 4.52234 12.9795C4.52234 13.7284 4.61579 14.4725 4.79927 15.1999C4.17214 15.6275 3.76855 16.3635 3.76855 17.1917V17.7689C3.76855 18.8835 4.51675 19.8692 5.54768 20.1126C5.75823 20.1623 5.97179 20.1825 6.18352 20.173C6.61568 22.4566 7.96071 24.373 9.7986 25.5779V26.8425C9.61007 26.8545 9.42488 26.9316 9.28082 27.0755L7.13034 29.221L3.19642 30.9341C1.19482 31.8059 -0.0877996 33.8542 0.00469098 36.0312L0.480464 47.2301C0.498834 47.662 0.855583 47.9999 1.28484 47.9999C1.29634 47.9999 1.30794 47.9997 1.31954 47.9991C1.76416 47.9804 2.1092 47.6056 2.0904 47.162L1.61452 35.963C1.58391 35.2414 1.7719 34.5413 2.12532 33.9386L4.23992 36.4703C4.9082 37.2703 5.27612 38.2844 5.27612 39.3257V47.1961C5.27612 47.64 5.63684 47.9999 6.08179 47.9999C6.52673 47.9999 6.88745 47.64 6.88745 47.1961V39.3257C6.88745 37.9091 6.38676 36.5295 5.47775 35.4412L3.22972 32.7498C3.42083 32.6184 3.62396 32.502 3.84106 32.4074L7.26956 30.9143L9.69236 34.8378C9.93159 35.2252 10.3271 35.4879 10.7776 35.5587C10.8586 35.5714 10.9399 35.5776 11.0207 35.5776C11.3891 35.5776 11.7479 35.4474 12.0323 35.2052L13.5676 33.8982V47.196C13.5676 47.6399 13.9283 47.9998 14.3733 47.9998C14.8182 47.9998 15.179 47.6399 15.179 47.196V33.8984L16.7141 35.2054C16.9986 35.4476 17.3574 35.5778 17.7257 35.5778C17.8065 35.5778 17.8878 35.5715 17.9688 35.5589C18.4193 35.4881 18.8149 35.2255 19.0541 34.838L21.4769 30.9144L24.9054 32.4075C25.1224 32.5021 25.3256 32.6185 25.5167 32.7499L23.2687 35.4413C22.3597 36.5295 21.859 37.9092 21.859 39.3258V47.1962C21.859 47.6401 22.2197 48 22.6647 48C23.1096 48 23.4703 47.6401 23.4703 47.1962V39.3258C23.4703 38.2845 23.8384 37.2704 24.5065 36.4704L26.6211 33.9387C26.9746 34.5414 27.1626 35.2415 27.1319 35.9631L26.6562 47.1621C26.6374 47.6056 26.9824 47.9804 27.427 47.9993C27.4386 47.9998 27.4501 48 27.4617 48C27.891 48 28.2477 47.6622 28.2661 47.2302L28.7419 36.0313C28.8343 33.8543 27.5515 31.8059 25.5498 30.9341ZM14.3732 1.6076C16.0872 1.6076 17.5333 2.69852 17.961 4.17666C16.8487 3.75782 15.6385 3.52751 14.3732 3.52751C13.1079 3.52751 11.8976 3.75782 10.7854 4.17666C11.213 2.69852 12.659 1.6076 14.3732 1.6076ZM7.7608 19.8418C7.61879 19.0698 6.90131 18.5091 6.12937 18.5661C6.06095 18.5709 5.99026 18.5651 5.91893 18.5482C5.61171 18.4756 5.38 18.1406 5.38 17.7689V17.1917C5.38 16.8188 5.62975 16.483 5.94848 16.4271C6.21746 16.38 6.47495 16.4786 6.6378 16.6904C6.78573 16.8829 6.98306 17.0205 7.20854 17.0885C7.53843 17.1879 7.90249 17.1295 8.182 16.9324C8.67818 16.5831 9.1169 16.1572 9.486 15.6667C9.75316 15.3118 9.68129 14.8078 9.32551 14.5414C8.96962 14.2749 8.46463 14.3466 8.19747 14.7015C8.01474 14.9443 7.80903 15.1649 7.5828 15.361C7.23808 15.0669 6.81537 14.8828 6.36699 14.8269C6.21263 14.2215 6.13367 13.6024 6.13367 12.9796C6.13367 8.65426 9.82986 5.13522 14.3732 5.13522C18.9164 5.13522 22.6126 8.65415 22.6126 12.9796C22.6126 13.6012 22.5341 14.219 22.3802 14.8234C22.1682 14.8402 21.9527 14.8748 21.7532 14.9265L21.1476 14.4296C20.8432 14.1799 20.4602 14.0549 20.0725 14.078C18.8882 14.1478 12.8234 14.3076 9.7118 10.5923C9.42649 10.2517 8.91849 10.2062 8.57699 10.4909C8.2355 10.7755 8.19006 11.2825 8.47537 11.6231C10.01 13.4554 12.2608 14.6944 15.1652 15.3058C17.389 15.7738 19.3657 15.7284 20.1403 15.6843L21.0851 16.4595C21.3452 16.6729 21.7099 16.703 22.0011 16.5339C22.1378 16.4596 22.5954 16.3886 22.7951 16.4284C23.1209 16.493 23.3665 16.8173 23.3665 17.1829V17.7689C23.3665 18.1407 23.1348 18.4757 22.8275 18.5482C22.7563 18.565 22.6855 18.5711 22.6171 18.566C21.8456 18.51 21.1277 19.0698 20.9856 19.8417C20.3995 23.0253 17.6186 25.3359 14.3733 25.3359C11.1278 25.3359 8.34689 23.0253 7.7608 19.8418ZM11.0325 33.9432L8.60922 30.019L9.85059 28.7805L13.1869 32.1091L11.0325 33.9432ZM14.3732 31.019L11.41 28.0627V26.3998C12.3351 26.7511 13.3346 26.9435 14.3732 26.9435C15.4117 26.9435 16.4113 26.7511 17.3363 26.3999V28.0627L14.3732 31.019ZM17.7139 33.9432L15.5594 32.1091L18.8958 28.7805L20.1371 30.019L17.7139 33.9432Z" fill="#E31837"/>
        <path d="M11.358 38.873H9.09669C8.65174 38.873 8.29102 39.2329 8.29102 39.6768C8.29102 40.1207 8.65174 40.4806 9.09669 40.4806H11.358C11.8029 40.4806 12.1636 40.1207 12.1636 39.6768C12.1636 39.2329 11.8029 38.873 11.358 38.873Z" fill="#E31837"/>
    </g>
    <defs>
        <clipPath id="clip0_1_270">
            <rect width="55" height="48" fill="white"/>
        </clipPath>
    </defs>
</svg>