<svg width="48" height="48" viewBox="0 0 48 48" fill="none" xmlns="http://www.w3.org/2000/svg">
    <g clip-path="url(#clip0_1_282)">
        <path d="M24 0C10.7452 0 0 10.7452 0 24C0 37.2548 10.7452 48 24 48C37.2548 48 48 37.2548 48 24C47.985 10.7514 37.2486 0.015 24 0ZM24 46.4C11.6288 46.4 1.6 36.3712 1.6 24C1.6 11.6288 11.6288 1.6 24 1.6C36.3712 1.6 46.4 11.6288 46.4 24C46.3859 36.3653 36.3653 46.3859 24 46.4Z" fill="#E31837"/>
        <path d="M26.265 23.2124C26.0242 22.527 25.4852 21.9881 24.7998 21.7472V12.8C24.7998 12.3582 24.4416 12 23.9998 12C23.558 12 23.1998 12.3582 23.1998 12.8V21.7472C22.5223 21.9892 21.989 22.5225 21.747 23.2H17.5998C17.158 23.2 16.7998 23.5582 16.7998 24C16.7998 24.4418 17.158 24.8 17.5998 24.8H21.747C22.1854 26.0476 23.5522 26.7036 24.7998 26.2652C26.0474 25.8268 26.7034 24.46 26.265 23.2124ZM23.9998 24.8C23.558 24.8 23.1998 24.4418 23.1998 24C23.1998 23.5582 23.558 23.2 23.9998 23.2C24.4416 23.2 24.7998 23.5582 24.7998 24C24.7998 24.4418 24.4416 24.8 23.9998 24.8Z" fill="#E31837"/>
        <path d="M42.0305 13.65C42.0225 13.6332 42.0233 13.6156 42.0137 13.5996C42.0041 13.5836 41.9889 13.5756 41.9793 13.5604C40.1584 10.4388 37.561 7.84129 34.4393 6.02039C34.4241 6.01079 34.4161 5.99479 34.4001 5.98599C34.3841 5.97719 34.3665 5.97719 34.3497 5.96919C27.9442 2.27589 20.056 2.27589 13.6505 5.96919C13.6337 5.97719 13.6161 5.97639 13.6001 5.98599C13.5841 5.99559 13.5761 6.01079 13.5609 6.02039C10.4393 7.84129 7.84178 10.4388 6.02088 13.5604C6.01128 13.5748 5.99528 13.5836 5.98648 13.5996C5.97768 13.6156 5.97768 13.6332 5.96968 13.65C2.27638 20.0555 2.27638 27.9437 5.96968 34.3492C5.97768 34.366 5.97688 34.3836 5.98648 34.3996C5.99608 34.4156 6.01848 34.4388 6.03368 34.4604C7.85368 37.5731 10.4464 40.1634 13.5609 41.9804C13.5761 41.99 13.5841 42.006 13.6001 42.0148C13.6241 42.0262 13.6486 42.0364 13.6737 42.0452C20.0674 45.7207 27.9328 45.7207 34.3265 42.0452C34.3516 42.0359 34.3762 42.0252 34.4001 42.0132C34.4161 42.0044 34.4241 41.9884 34.4393 41.9788C37.5538 40.1618 40.1465 37.5715 41.9665 34.4588C41.9817 34.4372 42.0009 34.4204 42.0137 34.398C42.0265 34.3756 42.0225 34.366 42.0305 34.3492C45.7238 27.9437 45.7238 20.0555 42.0305 13.65ZM41.0073 32.8948L38.9497 31.7068C38.5686 31.4833 38.0784 31.6111 37.8549 31.9922C37.6314 32.3733 37.7592 32.8635 38.1403 33.087C38.1434 33.0888 38.1465 33.0906 38.1496 33.0924L40.204 34.2788C38.6856 36.6628 36.6632 38.6852 34.2792 40.2036L33.0928 38.1492C32.8745 37.7651 32.3861 37.6307 32.002 37.849C31.6179 38.0673 31.4835 38.5557 31.7018 38.9398C31.7036 38.9429 31.7054 38.946 31.7072 38.9491L32.8952 41.0067C30.3914 42.3226 27.6262 43.0648 24.8 43.1795V40.7996C24.8 40.3578 24.4418 39.9996 24 39.9996C23.5582 39.9996 23.2 40.3578 23.2 40.7996V43.1796C20.3738 43.0649 17.6086 42.3227 15.1048 41.0068L16.2928 38.9492C16.5162 38.568 16.3884 38.0779 16.0072 37.8545C15.626 37.6311 15.1359 37.7589 14.9125 38.1401C14.9107 38.1431 14.909 38.1462 14.9072 38.1493L13.7208 40.2037C11.3368 38.6853 9.31438 36.6629 7.79598 34.2789L9.85038 33.0925C10.2345 32.8742 10.3689 32.3858 10.1506 32.0017C9.93228 31.6176 9.44388 31.4832 9.05978 31.7015C9.05668 31.7033 9.05358 31.7051 9.05048 31.7069L6.99288 32.8949C5.67698 30.391 4.93478 27.6258 4.82008 24.7996H7.20008C7.64188 24.7996 8.00008 24.4414 8.00008 23.9996C8.00008 23.5578 7.64188 23.1996 7.20008 23.1996H4.82008C4.93478 20.3734 5.67698 17.6082 6.99288 15.1044L9.05048 16.2924C9.43168 16.5158 9.92178 16.388 10.1452 16.0068C10.3686 15.6256 10.2408 15.1355 9.85958 14.9121C9.85658 14.9103 9.85348 14.9086 9.85038 14.9068L7.79608 13.7204C9.31448 11.3364 11.3369 9.31399 13.7209 7.79559L14.9073 9.84999C15.1257 10.2341 15.6141 10.3684 15.9982 10.15C16.3823 9.93159 16.5166 9.44319 16.2982 9.05909C16.2965 9.05599 16.2947 9.05299 16.2929 9.04989L15.1049 6.99229C17.6087 5.67649 20.3739 4.93429 23.2001 4.81959V7.19959C23.2001 7.64139 23.5583 7.99959 24.0001 7.99959C24.4419 7.99959 24.8001 7.64139 24.8001 7.19959V4.81959C27.6263 4.93429 30.3915 5.67649 32.8953 6.99239L31.7073 9.04999C31.4838 9.43109 31.6116 9.92129 31.9927 10.1448C32.3738 10.3683 32.864 10.2405 33.0875 9.85939C33.0893 9.85629 33.0911 9.85319 33.0929 9.85009L34.2793 7.79569C36.6633 9.31409 38.6857 11.3365 40.2041 13.7205L38.1497 14.9069C37.7656 15.1253 37.6313 15.6137 37.8497 15.9978C38.0681 16.3819 38.5565 16.5162 38.9406 16.2978C38.9437 16.2961 38.9467 16.2943 38.9498 16.2925L41.0074 15.1045C42.3233 17.6083 43.0655 20.3735 43.1802 23.1997H40.8001C40.3583 23.1997 40.0001 23.5579 40.0001 23.9997C40.0001 24.4415 40.3583 24.7997 40.8001 24.7997H43.1801C43.0654 27.6258 42.3232 30.391 41.0073 32.8948Z" fill="#E31837"/>
    </g>
    <defs>
        <clipPath id="clip0_1_282">
            <rect width="48" height="48" fill="white"/>
        </clipPath>
    </defs>
</svg>