<svg xmlns="http://www.w3.org/2000/svg" width="24" height="24" viewBox="0 0 24 24" fill="none">
    <g clip-path="url(#clip0_87_1127)">
        <path d="M11.2153 0.417969C11.6035 1.22766 12.0128 2.02609 12.4435 2.81328" stroke="white" stroke-width="2"/>
        <path d="M4.47664 16.1348C4.08195 16.8023 3.6943 17.4738 3.31367 18.1495C3.28461 18.2007 3.21977 18.2954 3.11914 18.4335" stroke="white" stroke-width="2"/>
        <path d="M22.7362 15.7499C22.675 15.7396 22.5836 15.7352 22.462 15.7368C21.6679 15.7452 20.6607 15.7412 19.4404 15.7246" stroke="white" stroke-width="2"/>
        <path d="M11.2151 0.417664C11.6032 1.22735 12.0126 2.02579 12.4432 2.81298L10.3545 6.60188C10.3531 6.60434 10.3513 6.6065 10.3491 6.60823C10.3468 6.60995 10.3443 6.6112 10.3416 6.6119C10.3389 6.61261 10.336 6.61274 10.3332 6.61231C10.3305 6.61188 10.3278 6.61088 10.3254 6.60938L5.81418 3.73688C5.80895 3.73364 5.80524 3.72843 5.80384 3.72238C5.80243 3.71633 5.80345 3.70992 5.80668 3.70454C6.16949 3.11016 6.53465 2.51688 6.90215 1.9247C7.12652 1.56376 7.30949 1.31157 7.45105 1.16813C7.93637 0.677195 8.55137 0.426727 9.29605 0.416727C9.9448 0.407664 10.5845 0.407977 11.2151 0.417664Z" fill="#6A9923"/>
        <path d="M11.2153 0.416538C12.641 0.4081 14.0586 0.406069 15.4683 0.410444C15.9827 0.412319 16.2949 0.419975 16.4049 0.433413C17.1817 0.529663 17.7796 0.935444 18.1983 1.65076C18.7292 2.55763 19.2586 3.46326 19.7864 4.36763C19.7901 4.37404 19.7961 4.3788 19.8031 4.38089C19.8102 4.38299 19.8178 4.38227 19.8244 4.37888L21.8921 3.33029C21.8948 3.32896 21.8979 3.32852 21.901 3.32902C21.904 3.32952 21.9068 3.33094 21.909 3.33309C21.9112 3.33523 21.9127 3.33801 21.9133 3.34103C21.9138 3.34405 21.9135 3.34717 21.9122 3.34998L18.9971 9.36498C18.9896 9.38091 18.9771 9.38779 18.9596 9.3856L12.8499 8.69091L12.846 8.6889L12.8439 8.68506L12.8443 8.68071L12.8471 8.67732L14.8702 7.46373C14.8771 7.45961 14.8822 7.45298 14.8844 7.44521C14.8866 7.43744 14.8857 7.42914 14.8819 7.42201L12.4435 2.81185C12.0128 2.02466 11.6035 1.22623 11.2153 0.416538Z" fill="#88B337"/>
        <path d="M4.47634 16.135C4.08165 16.8025 3.69399 17.4741 3.31337 18.1497C3.2843 18.201 3.21946 18.2957 3.11884 18.4338C2.43727 17.2647 1.75837 16.0943 1.08212 14.9224C0.860241 14.538 0.719616 14.2596 0.660241 14.0871C0.423054 13.3989 0.483366 12.6949 0.841179 11.9749C1.34618 10.9583 1.85165 9.94598 2.35759 8.93785C2.36074 8.93177 2.36147 8.92472 2.35965 8.91811C2.35782 8.9115 2.35357 8.90583 2.34774 8.90223L0.0307101 7.46832C0.0286508 7.46709 0.0270642 7.46525 0.0261775 7.46304C0.0252908 7.46083 0.0251495 7.45838 0.0257739 7.45604C0.0263983 7.4537 0.0277564 7.45159 0.0296535 7.45C0.0315507 7.44842 0.0338896 7.44745 0.0363351 7.44723L6.60634 7.0352C6.61049 7.03493 6.61463 7.03596 6.61823 7.03813C6.62182 7.04031 6.6247 7.04353 6.62649 7.04738L9.08649 12.3771C9.09774 12.4011 9.09102 12.4083 9.06634 12.3986L7.09852 11.6402C7.0779 11.6324 7.06212 11.638 7.05118 11.6571L4.47634 16.135Z" fill="#88B337"/>
        <path d="M23.9999 12.999V13.0928C23.9743 13.5021 23.8757 13.8635 23.7041 14.177C23.5341 14.487 23.2115 15.0114 22.7362 15.7501C22.6749 15.7398 22.5835 15.7354 22.462 15.737C21.6679 15.7454 20.6607 15.7414 19.4404 15.7248L17.3901 12.0231C17.3867 12.017 17.3858 12.0099 17.3877 12.0032C17.3895 11.9966 17.3939 11.9909 17.3999 11.9875L22.3007 9.13042C22.3301 9.11324 22.3524 9.1198 22.3677 9.15011C22.8018 10.0101 23.229 10.865 23.6493 11.7146C23.8766 12.1735 23.9863 12.5242 23.9999 12.999Z" fill="#6A9923"/>
        <path d="M19.4403 15.7252C20.6606 15.7417 21.6678 15.7458 22.4619 15.7374C22.5834 15.7358 22.6748 15.7402 22.7361 15.7505C21.7945 17.3814 20.8466 19.0088 19.8922 20.6325C19.5162 21.2724 19.1061 21.6802 18.3889 21.8592C18.212 21.9033 17.9487 21.9255 17.5991 21.9258C16.5694 21.9267 15.5386 21.9267 14.5067 21.9258C14.5007 21.9258 14.495 21.9282 14.4908 21.9325C14.4866 21.9368 14.4842 21.9427 14.4842 21.9488V23.5495C14.4842 23.5524 14.4834 23.5552 14.4817 23.5575C14.4801 23.5599 14.4778 23.5616 14.4751 23.5625C14.4724 23.5635 14.4695 23.5635 14.4667 23.5627C14.464 23.5619 14.4616 23.5602 14.4598 23.558L10.3587 18.225C10.3494 18.2131 10.3498 18.2016 10.3602 18.1903L14.4608 13.68C14.4626 13.6781 14.465 13.6767 14.4676 13.6761C14.4702 13.6755 14.473 13.6757 14.4755 13.6767C14.478 13.6776 14.4801 13.6793 14.4817 13.6815C14.4832 13.6836 14.4841 13.6862 14.4842 13.6889V15.7036C14.4842 15.7066 14.4848 15.7096 14.486 15.7124C14.4871 15.7152 14.4888 15.7177 14.4909 15.7198C14.4931 15.722 14.4956 15.7237 14.4984 15.7248C14.5012 15.726 14.5042 15.7266 14.5072 15.7266L19.4403 15.7252Z" fill="#88B337"/>
        <path d="M4.47664 16.1348L8.25008 16.1366C8.2657 16.1366 8.27352 16.1446 8.27352 16.1605V21.9027C8.27352 21.9118 8.26991 21.9205 8.26349 21.9269C8.25708 21.9333 8.24837 21.937 8.2393 21.937C7.83992 21.9385 7.44086 21.9373 7.04211 21.9332C6.61461 21.9288 6.30383 21.9063 6.10977 21.8657C5.53383 21.7451 5.05508 21.4641 4.67352 21.0229C4.55258 20.8832 4.38133 20.6226 4.15977 20.241C3.81039 19.6401 3.46352 19.0376 3.11914 18.4335C3.21977 18.2954 3.28461 18.2007 3.31367 18.1495C3.6943 17.4738 4.08195 16.8023 4.47664 16.1348Z" fill="#6A9923"/>
    </g>
    <defs>
        <clipPath id="clip0_87_1127">
            <rect width="24" height="24" fill="white"/>
        </clipPath>
    </defs>
</svg>