<svg width="24" height="24" viewBox="0 0 24 24" fill="none" xmlns="http://www.w3.org/2000/svg">
    <path d="M19.0621 20.9683C17.1077 22.9226 12.1028 21.0863 7.88327 16.8667C3.66372 12.6472 1.82739 7.64227 3.7817 5.68795L5.06847 4.40118C5.9568 3.51286 7.42054 3.53634 8.33784 4.45363L10.3309 6.44672C11.2482 7.36401 11.2717 8.82776 10.3834 9.71609L10.107 9.99247C9.62737 10.4721 9.58045 11.2458 10.0261 11.7859C10.456 12.3068 10.9194 12.8256 11.4219 13.3281C11.9244 13.8306 12.4432 14.294 12.9641 14.7239C13.5042 15.1696 14.2779 15.1226 14.7575 14.643L15.0339 14.3666C15.9222 13.4783 17.386 13.5018 18.3033 14.4191L20.2964 16.4122C21.2137 17.3295 21.2371 18.7932 20.3488 19.6815L19.0621 20.9683Z" stroke="#00537A" stroke-width="1.5"/>
    <path d="M17.6267 9.7512C17.3827 9.15601 17.0191 8.59839 16.5358 8.11512C16.0798 7.65914 15.5576 7.30967 15.0002 7.06671" stroke="#00537A" stroke-width="1.5" stroke-linecap="round"/>
    <path d="M15.0002 3.66292C16.3348 4.14643 17.587 4.92316 18.657 5.99316C19.7539 7.09 20.5426 8.37834 21.0231 9.75064" stroke="#00537A" stroke-width="1.5" stroke-linecap="round"/>
</svg>